<svg viewBox="0 0 72 72" fill="none" xmlns="http://www.w3.org/2000/svg">
  <path d="M48.4301 24.541a29.7177 29.7177 0 00-7.335-2.275.111.111 0 00-.118.056 20.6994 20.6994 0 00-.914 1.876 27.4367 27.4367 0 00-8.239 0c-.245-.59-.609-1.313-.927-1.876a.116.116 0 00-.118-.056 29.6369 29.6369 0 00-7.336 2.275.1054.1054 0 00-.048.042c-4.672 6.98-5.952 13.788-5.324 20.512a.1226.1226 0 00.047.084 29.887 29.887 0 008.999 4.55.1169.1169 0 00.126-.042 21.3635 21.3635 0 001.841-2.995.1134.1134 0 00.0043-.0928.115.115 0 00-.0663-.0652 19.6793 19.6793 0 01-2.811-1.34.1152.1152 0 01-.0571-.0928.1152.1152 0 01.0451-.0992c.19-.141.378-.289.558-.437a.1114.1114 0 01.117-.016c5.898 2.693 12.283 2.693 18.112 0a.1105.1105 0 01.117.014c.18.149.37.298.56.44a.1157.1157 0 01.0445.0976.1149.1149 0 01-.0545.0924c-.898.526-1.83.969-2.812 1.34a.1146.1146 0 00-.0744.1136.1137.1137 0 00.0124.0464 23.9868 23.9868 0 001.84 2.992c.028.04.08.058.126.043 2.945-.91 5.931-2.285 9.014-4.549a.1153.1153 0 00.047-.083c.751-7.773-1.26-14.526-5.329-20.512a.0918.0918 0 00-.047-.043zm-18.465 16.46c-1.776 0-3.239-1.63-3.239-3.632 0-2.003 1.435-3.633 3.239-3.633 1.818 0 3.267 1.645 3.239 3.633 0 2.002-1.435 3.632-3.239 3.632zm11.975 0c-1.776 0-3.239-1.63-3.239-3.632 0-2.003 1.435-3.633 3.239-3.633 1.818 0 3.267 1.645 3.239 3.633 0 2.002-1.42 3.632-3.24 3.632h.001z" fill="#5865F2"/>
</svg>
