<svg fill="none" viewBox="0 0 72 72" xmlns="http://www.w3.org/2000/svg">
  <g fill="#25f4ee">
    <path d="M32.4793 32.2v-1.3c-.5-.1-1-.2-1.5-.2-4.8 0-9 3.1-10.4 7.6s.3 9.5 4.2 12.2c-2.3-3.7-3.2-7.8-1.5-11.7s4.9-6.1 9.2-6.6z"/>
    <path d="M31.8794 49c2.7 0 7.4-2.6 6.8-6l.3-22.5 3.1-1c-.1-.5-.1-1-.1-1.5h-6v23.8c-.1 2.7-2.3 4.8-5 4.8-.8 0-1.6-.2-2.3-.6.5 1.7 1.6 3 3.2 3zM50.1794 27.6v-1.3c-1.6 0-3.2-.5-4.5-1.4.8 2 2.3 2.9 4.5 2.7z"/>
  </g>
  <path d="M45.6792 24.9c-1.3-1.5-2-3.4-2-5.4h-1.6c-.5 2.7 1.1 4.5 3.6 5.4zM25.5792 40.1c-.5 2.2.7 4.9 3.1 5.9-1.1-1.5-1.2-3.5-.4-5.2.9-1.7 2.6-2.7 4.4-2.7.5 0 1 .1 1.5.2v-6c-.5-.1-1-.1-1.5-.1h-.3l-1 3.5c-.4-.1-5.3 2.2-5.8 4.4z" fill="#fe2c55"/>
  <path d="M50.1793 27.5l-.5 3.8c-3 0-5.6-.6-8-2.3l-.1 12.5c0 6-4.5 10.3-10.5 10.3-2.2 0-4.4-.2-6.3-1.4 3.1 3.3 7.8 4.4 12 2.7s6.9-5.7 6.9-10.2V31c2.4 1.7 5.3 2.6 8.3 2.6v-6c-.6.1-1.2.1-1.8-.1z" fill="#fe2c55"/>
  <path d="M41.9792 41.6V29.5c2.4 1.7 5.3 2.7 8.3 2.6v-4.6c-1.7-.4-3.3-1.3-4.5-2.6-1.9-1.2-3.2-3.2-3.6-5.4h-4.3v23.8c-.1 2.1-1.5 4-3.5 4.6s-4.2-.1-5.5-1.8c-2-1.1-3.1-3.4-2.5-5.6s2.5-3.8 4.8-3.8c.5 0 1 .1 1.5.2v-4.6c-4.3.1-8.2 2.7-9.9 6.7s-.8 8.6 2.1 11.7c1.8 1.2 4 1.9 6.3 1.9 5.9-.1 10.8-5 10.8-11z" fill="#fff"/>
</svg>
