<svg fill="none" viewBox="0 0 72 72" xmlns="http://www.w3.org/2000/svg">
  <path clip-rule="evenodd" d="M52.0099 26.77c.25-.84 0-1.45-1.19-1.45h-3.93c-1 0-1.47.53-1.72 1.11 0 0-2 4.88-4.83 8.05-.92.92-1.33 1.2-1.83 1.2-.25 0-.62-.28-.62-1.12v-7.8c0-1-.29-1.44-1.12-1.44h-6.18c-.63 0-1 .47-1 .9 0 .95 1.41 1.17 1.56 3.84v5.8c0 1.26-.23 1.5-.73 1.5-1.33 0-4.58-4.9-6.5-10.5-.38-1.1-.76-1.54-1.76-1.54h-3.94c-1.12 0-1.34.53-1.34 1.11 0 1.05 1.33 6.21 6.2 13.05 3.26 4.67 7.84 7.2 12 7.2 2.5 0 2.81-.56 2.81-1.53v-3.53c0-1.12.24-1.35 1.03-1.35.59 0 1.59.3 3.92 2.54 2.67 2.67 3.1 3.87 4.6 3.87h3.94c1.13 0 1.69-.56 1.36-1.67-.35-1.1-1.62-2.71-3.31-4.61-.92-1.09-2.3-2.25-2.71-2.84-.59-.75-.42-1.08 0-1.75 0 0 4.79-6.75 5.29-9.04z" fill="#2787f5" fill-rule="evenodd"/>
</svg>
