<svg viewBox="0 0 72 72" fill="none" xmlns="http://www.w3.org/2000/svg">
  <path d="M19.7234 41.6289c0 4.3125 5.6155 7.8075 12.539 7.8075 6.9236 0 12.5391-3.495 12.5391-7.8075 0-4.3126-5.6155-7.8076-12.5391-7.8076-6.9235 0-12.539 3.495-12.539 7.8076z" fill="#fff"/>
  <path d="M32.5588 48.8028c-6.1315.608-11.425-2.1665-11.8237-6.1878-.3985-4.0264 4.2513-7.7768 10.3777-8.3849 6.1317-.6081 11.4252 2.1665 11.8186 6.1878.4037 4.0264-4.2461 7.7819-10.3726 8.3849zm12.2581-13.3617c-.5212-.1584-.8788-.2606-.6081-.9453.5928-1.4869.6541-2.7694.0103-3.6891-1.2008-1.7169-4.4914-1.6249-8.2623-.0461 0 0-1.1855.5161-.8789-.4189.5774-1.865.4905-3.4235-.4087-4.3279-2.0439-2.0489-7.4857.0766-12.1507 4.7418C19.0286 34.2455 17 37.9499 17 41.1537 17 47.275 24.8535 51 32.5333 51c10.0712 0 16.7699-5.8505 16.7699-10.4953.0051-2.8103-2.3607-4.4045-4.4863-5.0636z" fill="#E6162D"/>
  <path d="M51.5054 24.2356c-2.4321-2.6979-6.0192-3.7249-9.3302-3.0198-.7665.1636-1.2518.9198-1.0884 1.6811.1635.7664.9147 1.2519 1.6811 1.0883 2.3555-.5007 4.9053.23 6.6323 2.1461 1.7271 1.9161 2.1972 4.5272 1.4563 6.8163-.2401.746.1686 1.5431.9146 1.7832.746.2402 1.5431-.1685 1.7833-.9095v-.0051c1.0424-3.214.3832-6.8878-2.049-9.5806z" fill="#F93"/>
  <path d="M47.7704 27.608c-1.1854-1.3131-2.933-1.814-4.5425-1.4665-.6592.138-1.0781.7921-.9402 1.4512.1431.6591.792 1.0781 1.4461.935.7869-.1685 1.6452.0767 2.2227.7154a2.3318 2.3318 0 01.4853 2.284c-.2043.6387.1432 1.3285.7869 1.538.6439.2044 1.3286-.1431 1.5381-.7869.5058-1.5687.189-3.3571-.9964-4.6702z" fill="#F93"/>
  <path d="M32.8962 41.5164c-.2146.368-.6898.5417-1.0577.3884-.3679-.1482-.4804-.5621-.2708-.9198.2146-.3576.6693-.5314 1.0321-.3883.368.1328.5008.5467.2964.9197zm-1.957 2.5038c-.5928.9452-1.865 1.3591-2.8205.9248-.9402-.4292-1.2212-1.5277-.6285-2.4526.5876-.9198 1.8139-1.3285 2.7643-.9299.9606.4138 1.2672 1.5022.6847 2.4577zm2.2279-6.6937c-2.9177-.7613-6.2134.695-7.4807 3.2651-1.2926 2.6213-.0407 5.5337 2.9024 6.4842 3.0555.9861 6.6527-.5264 7.9046-3.3519 1.2365-2.7695-.3066-5.6156-3.3263-6.3974z" fill="#000"/>
</svg>
