<svg fill="none" viewBox="0 0 72 72" xmlns="http://www.w3.org/2000/svg">
  <linearGradient id="a" gradientUnits="userSpaceOnUse" x1="33.9997" x2="33.9997" y1="22.0009" y2="50.4442">
    <stop offset="0" stop-color="#ff5f00"/>
    <stop offset=".2652" stop-color="#ff6506"/>
    <stop offset=".4804" stop-color="#ff6e0f"/>
    <stop offset=".4816" stop-color="#fe690c"/>
    <stop offset=".4862" stop-color="#fd5e05"/>
    <stop offset=".4927" stop-color="#fc5701"/>
    <stop offset=".5108" stop-color="#fc5500"/>
    <stop offset=".775" stop-color="#fe6300"/>
    <stop offset="1" stop-color="#ff6900"/>
  </linearGradient>
  <path d="M0 0h72v72H0z" fill="#141616"/>
  <path d="M51.3281 50.4442v-.0422h-.0845v-.0423h-.1268v-.0423h-.0845v-.0422h-.1268v-.0423h-.0845v-.0422h-.1268v-.0423h-.1268v-.0423h-.0845v-.0422h-.1268v-.0423h-.0845v-.0422h-.1267v-.0423h-.0846v-.0422h-.1267v-.0423h-.0846v-.0423h-.1267v-.0422h-.0846v-.0423h-.1267v-.0422h-.0845v-.0423h-.1268v-.0423h-.0845v-.0422h-.1268v-.0423h-.1268v-.0422h-.0845V49.43h-.1268v-.0422h-.0845v-.0423h-.1268v-.0423h-.0845v-.0422h-.1268v-.0423h-.0845v-.0422h-.1268v-.0423h-.0845v-.0423h-.1267v-.0422h-.1268v-.0423h-.0845v-.0422h-.1268v-.0423h-.0845v-.0422h-.1268v-.0423h-.0845v-.0423h-.1268v-.0422H47.06v-.0423h-.1268v-.0422h-.0845v-.0423h-.1268v-.0423h-.0845v-.0422h-.1268v-.0423h-.1268v-.0422h-.0845v-.0423h-.1267v-.0423h-.0846v-.0422h-.1267v-.0423h-.0846v-.0422H45.75v-.0423h-.0845v-.0422h-.1268V48.12h-.0845v-.0423h-.1268v-.0422h-.1268v-.0423h-.0845v-.0422h-.1268v-.0423h-.0845v-.0423h-.1268v-.0422h-.0845v-.0423h-.1268v-.0422h-.0845v-.0423h-.1268v-.0422h-.0845v-.0423h-.1268v-.0423h-.1267v-.0422h-.0845v-.0423h-.1268v-.0422h-.0845v-.0423h-.1268v-.0423h-.0845v-.0422h-.1268v-.0423h-.0845v-.0422h-.1268v-.0423h-.0845v-.0422h-.1268v-.0423h-.1268v-.0423h-.0845v-.0422h-.1268v-.0423h-.0845v-.0422h-.1268v-.0423h-.0845v-.0423h-.1267V46.81h-.0846v-.0423h-.1267v-.0422h-.0846v-.0423h-.1267v-.0422h-.1268v-.0423h-.0845v-.0423h-.1268v-.0422h-.0845v-.0423h-.1268v-.0422h-.0845v-.0423h-.1268v-.0423h-.0845v-.0422h-.1268v-.0423h-.1267v-.0422h-.0846v-.0423h-.1267v-.0423h-.0846v-.0422h-.1267v-.0423h-.0845v-.0422h-.1268v-.0423h-.0845v-.0422h-.1268v-.0423h-.0845v-.0423h-.1268v-.0422h-.1268v-.0423h-.0845v-.0422h-.1268v-.0423h-.0845v-.0423h-.1268v-.0422h-.0845v-.0423h-.1268V45.5h-.0845v-.0423h-.1268v-.0422h-.1267v-.0423h-.0845v-.0423h-.1268v-.0422h-.0845v-.0423h-.1268v-.0422h-.0845v-.0423h-.1268v-.0423h-.0845v-.0422h-.1268v-.0423h-.1268v-.0422h-.0845v-.0423h-.1268v-.0422h-.0845v-.0423h-.1268v-.0423h-.0845v-.0422h-.1268v-.0423h-.0845v-.0422h-.1267v-.0423h-.1268v-.0423h-.0845v-.0422h-.1268v-.0423h-.0845v-.0422h-.1268v-.0423h-.0845v-.0422h-.1268v-.0423h-.1268v-.0423h-.0845v-.0422h-.1268v-.0423h-.0845V44.19h-.1268v-.0423h-.0845v-.0423h-.1268v-.0422h-.0845v-.0423h-.1267v-.0422h-.1268v-.0423h-.0845v-.0422h-.1268v-.0423h-.0845v-.0423h-.1268v-.0422h-.0845v-.0423h-.1268v-.0422h-.1268v-.0423h-.0845v-.0423h-.1268v-.0422h-.0845v-.0423h-.1268v-.0422h-.0845v-.0423h-.1267v-.0423h-.1268v-.0422h-.0845v-.0423h-.1268v-.0422h-.0845v-.0423h-.1268v-.0422h-.0845v-.0423h-.1268v-.0423h-.0845v-.0422h-.1268v-.0423h-.1268v-.0422h-.0845v-.0423h-.1268v-.0423h-.0845v-.0422h-.1268v-.0423h-.0845v-.0422h-.1267v-.0423h-.1268v-.0422h-.0845v-.0423h-.1268v-.0423h-.0845v-.0422h-.1268v-.0423h-.0845v-.0422h-.1268v-.0423h-.1268v-.0423h-.0845v-.0422h-.1268v-.0423h-.0845v-.0422h-.1268v-.0423h-.0845v-.0422h-.1268v-.0423h-.1267v-.0423h-.0845v-.0422h-.1268v-.0423h-.0845v-.0422h-.1268v-.0423h-.0845v-.0423h-.1268v-.0422h-.1268v-.0423h-.0845v-.0422h-.1268v-.0423h-.0845v-.0422h-.1268v-.0423h-.1267v-.0423h-.0846v-.0422h-.1267v-.0423h-.0845v-.0422h-.1268v-.0423h-.0845v-.0423h-.1268v-.0422h-.1268v-.0423h-.0845v-.0422h-.1268v-.0423h-.0845v-.0423h-.1268v-.0422h-.0845v-.0423h-.1268v-.0422h-.1267v-.0423h-.0846v-.0422h-.1267v-.0423h-.0846v-.0423h-.1267v-.0422h-.1268v-.0423h-.0845v-.0422h-.1268v-.0423h-.0845v-.0423h-.1268v-.0422h-.1268v-.0423h-.0845v-.0422h-.1268v-.0423h-.0845v-.0422h-.1268v-.0423h-.0845v-.0423h-.1267v-.0422h-.1268v-.0423h-.0845v-.0422h-.1268v-.0423h-.0845v-.0423h-.1268v-.0422h-.1268v-.0423h-.0845v-.0422h-.1268v-.0423h-.0845v-.0422h-.1268v-.0423h-.1267v-.0423h-.0846v-.0422h-.1267v-.0423h-.0845v-.0422h-.1268v-.0423h-.1268v-.0423h-.0845v-.0422h-.1268v-.0423h-.0845v-.0422h-.1268v-.0423h-.1268v-.0422h-.0845v-.0423h-.1268v-.0423h-.0845v-.0422h-.1267v-.0423h-.1268v-.0422h-.0845v-.0423h-.1268v-.0423h-.0845v-.0422h-.1268v-.0423h-.1268v-.0422h-.0845v-.0423h-.1268v-.0423h-.0845v-.0422h-.1268v-.0423h-.1267v-.0422h-.0846v-.0423h-.1267v-.0422h-.0845v-.0423h-.1268v-.0423h-.1268v-.0422h-.0845v-.0423h-.1268v-.0422h-.1268v-.0423h-.0845v-.0423h-.1268v-.0422h-.0845v-.0423h-.1268v-.0422h-.1267v-.0423h-.0845v-.0422h-.1268v-.0423h-.0845v-.0423h-.1268v-.0422h-.1268v-.0423h-.0845v-.0422h-.1268v-.0423h-.1268v-.0423h-.0845v-.0422h-.1267v-.0423h-.0846v-.0422h-.1267v-.0423h-.1268v-.0422h-.0845v-.0423h-.1268v-.0423h-.1268v-.0422h-.0845v-.0423h-.1268v-.0422h-.0845v-.0423h-.1268v-.0423h-.1267v-.0422h-.0846v-.0423h-.1267v-.0422h-.1268v-.0423h-.0845v-.0422h-.1268v-.0423h-.0845v-.0423h-.1268v-.0422h-.1268v-.0423h-.0845v-.0422h-.1268v-.0423h-.1267v-.0423h-.0846v-.0422h-.1267v-.0423h-.1268v-.0422h-.0845v-.0423h-.0845v-.0845H16v-.2958h.0423v-.0423h.0422v-.0422h.0423v-.0423h.0845v-.0423h26.2425v-.0422h.0423v-.0845h.0422v-.0845h.0423v-.0423h.0422v-.0845h.0423v-.0423h.0423v-.0845h.0422v-.0423h.0423v-.0845h.0422v-.0422h.0423v-.0845h.0423v-.0846h.0422v-.0422h.0423v-.0845h.0422v-.0423h.0423v-.0845h.0422v-.0423h.0423v-.0845h.0423v-.0845h.0422v-.0423h.0423v-.0845h.0422v-.0422h.0423v-.0846h.0423v-.0422h.0422v-.0845h.0423v-.0423h.0422v-.0845h.0423v-.0845h.0422v-.0423h.0423v-.0845h.0423v-.0423h.0422v-.0845h.0423v-.0422h.0422v-.0845h.0423v-.0846h.0423v-.0422h.0422v-.0845h.0423v-.0423h.0422v-.0845h.0423v-.0423h.0422v-.0845h.0423v-.0423h.0423v-.0845h.0422v-.0845h.0423v-.0422h.0422v-.0846h.0423v-.0422h.0423v-.0845h.0422v-.0423h.0423v-.0845h.0422v-.0423h.0423v-.0845h.0422v-.0845h.0423v-.0423h.0423v-.0845h.0422v-.0422h.0423v-.0846h.0422v-.0422h.0423v-.0845h.0423v-.0423h.0422v-.0845h.0423v-.0845h.0422v-.0423h.0423v-.0845h.0422v-.0423h.0423v-.0845h.0423v-.0422h.0422v-.0845h.0423v-.0423h.0422v-.0845h.0423v-.0845h.0423v-.0423h.0422v-.0845h.0423v-.0423h.0422v-.0845h.0423v-.0423h.0423v-.0845h.0422v-.0422h.0423v-.0845h.0422v-.0846h.0423v-.0422h.0422v-.0845h.0423v-.0423h.0423v-.0845h.0422v-.0423h.0423v-.0845h.0422v-.0422h.0423v-.0846h.0423v-.0845h.0422v-.0422h.0423v-.0846h.0422v-.0422h.0423v-.0845h.0422v-.0423h.0423v-.0845h.0423v-.0423h.0422v-.0845h.0423v-.0422h.0422v-.0846h.0423v-.0845h.0423v-.0422h.0422v-.0845h.0423v-.0423h.0422v-.0845h.0423v-.0423h.0422v-.0845h.0423v-.0423h.0423v-.0845h.0422v-.0422h.0423v-.0845h.0422v-.0846h.0423v-.0422h.0423v-.0845h.0422v-.0423h.0423v-.0845h.0422v-.0423h.0423v-.0845h.0423v-.0423h.0422v-.0845h.0423v-.0422h.0422v-.0845h.0423v-.0846h.0422v-.0422h.0423v-.0845h.0423v-.0423h.0422v-.0845h.0423v-.0423h.0422v-.0845h.0423v-.0422h.0423v-.0846h.0422v-.0422h.0423v-.0845h.0422v-.0846h.0423v-.0422h.0422v-.0845h.0423v-.0423h.0423v-.0845h.0422v-.0423h.0423v-.0845h.0422v-.0422h.0423v-.0846h.0423v-.0422h.0422v-.0845h.0423v-.0845h.0422v-.0423h.0423v-.0845h.0422v-.0423h.0423v-.0845h.0423v-.0423h.0422v-.0845h.0423v-.0422h.0422v-.0846h.0423v-.0422h.0423v-.0845h.0422v-.0845h.0423v-.0423h.0422v-.0845h.0423v-.0423h.0422v-.0845h.0423v-.0423h.0423v-.0845h.0422v-.0422h.0423v-.0845h.0422v-.0423h.0423v-.0845h.0423v-.0423h.0422v-.0845h.0423v-.0845h.0422v-.0423h.0423v-.0845h.0422v-.0422h.0423v-.0846h.0423v-.0422h.0422v-.0845h.0423v-.0423h.0422v-.0845h.0423v-.0423h.0423v-.0845h.0422v-.0422h.0423v-.0846h.0422v-.0845h.0423v-.0422h.0423v-.0846h.0422v-.0422h.0423v-.0845h.0422v-.0423h.0423v-.0845h.0422v-.0423h.0423v-.0845h.0423v-.0422h.0422v-.0846h.0423v-.0422h.0422v-.0845h.0423v-.0846h.0423v-.0422h.0422v-.0845h.0423v-.0423h.0422v-.0845h.0423v-.0423h.0422v-.0845h.0423v-.0422h.0423v-.0846h.0422v-.0422h.0423v-.0845h.0422v-.0423h.0423v-.0845h.0423v-.0845h.0422v-.0423h.0423v-.0845h.0422v-.0423h.0423v-.0845h.0422v-.0422h.0423v-.0845h.0423v-.0423h.0422v-.0845h.0423v-.0423h.0422v-.0422h.3381v.0422h.0423v.0845h.0422v28.1442h-.0422v.0422h-.0423v.0423h-.0845v.0423h-.0845v.0422" fill="url(#a)"/>
</svg>
