<svg viewBox="0 0 72 72" fill="none" xmlns="http://www.w3.org/2000/svg">
  <path d="M72 0H0v72h72V0z" fill="url(#paint0_linear)"/>
  <path d="M44.1 18H27.9c-5.5 0-9.9 4.5-9.9 9.9V44c0 5.5 4.5 9.9 9.9 9.9H44c5.5 0 9.9-4.5 9.9-9.9V27.9c.1-5.4-4.4-9.9-9.8-9.9zm6.7 26.1c0 3.7-3 6.7-6.7 6.7H27.9c-3.7 0-6.7-3-6.7-6.7V27.9c0-3.7 3-6.7 6.7-6.7H44c3.7 0 6.7 3 6.7 6.7l.1 16.2z" fill="#fff"/>
  <path d="M36 26.7c-5.1 0-9.3 4.2-9.3 9.3 0 5.1 4.2 9.3 9.3 9.3 5.1 0 9.2999-4.2 9.2999-9.3 0-5.1-4.1999-9.3-9.2999-9.3zm0 15.4c-3.4 0-6.1-2.7-6.1-6.1 0-3.4 2.7-6.1 6.1-6.1 3.4 0 6.0999 2.7 6.0999 6.1 0 3.4-2.6999 6.1-6.0999 6.1zM45.7001 24c-.6 0-1.2001.2-1.7001.7-.4.4-.7 1-.7 1.7 0 .6.3 1.2.7 1.7.4.4 1.0001.7 1.7001.7.6 0 1.2-.3 1.7-.7.4-.4.6999-1 .6999-1.7 0-.6-.1999-1.2-.6999-1.7-.5-.4-1.1-.7-1.7-.7z" fill="#fff"/>
  <defs>
    <linearGradient id="paint0_linear" x1="0" y1="72" x2="72" y2="0" gradientUnits="userSpaceOnUse">
      <stop stop-color="#FEB811"/>
      <stop offset="1" stop-color="#9E27AD"/>
    </linearGradient>
  </defs>
</svg>
