<svg viewBox="0 0 1536 904" fill="none" xmlns="http://www.w3.org/2000/svg">
  <path d="M363 253c0 11.046 8.954 20 20 20s20-8.954 20-20-8.954-20-20-20-20 8.954-20 20z" fill="#FF4301"/>
  <path d="M393 253.167c0-1.223-1-2.167-2.167-2.167-.611 0-1.111.222-1.5.611-1.5-1.055-3.555-1.778-5.833-1.833l1-4.667 3.278.667c.055.833.722 1.5 1.555 1.5.889 0 1.556-.722 1.556-1.556 0-.889-.722-1.555-1.556-1.555-.611 0-1.166.333-1.389.889l-3.611-.778c-.111 0-.222 0-.278.055-.111.056-.166.167-.166.223l-1.111 5.222c-2.334.055-4.445.778-5.945 1.833a2.145 2.145 0 00-1.5-.611c-1.222 0-2.166 1-2.166 2.167 0 .889.555 1.666 1.277 2-.055.222-.055.444-.055.666 0 3.389 3.944 6.111 8.778 6.111 4.833 0 8.777-2.722 8.777-6.111 0-.222 0-.444-.055-.666.555-.334 1.111-1.111 1.111-2zm-15 1.555c0-.889.722-1.555 1.555-1.555.889 0 1.556.722 1.556 1.555 0 .889-.722 1.556-1.556 1.556a1.553 1.553 0 01-1.555-1.556zm8.722 4.111C385.667 259.889 383.611 260 383 260c-.611 0-2.667-.111-3.722-1.167-.167-.166-.167-.389 0-.555.166-.167.389-.167.555 0 .667.666 2.111.889 3.167.889 1 0 2.444-.223 3.167-.889.166-.167.388-.167.555 0 .167.166.167.389 0 .555zm-.278-2.555a1.552 1.552 0 01-1.555-1.556c0-.889.722-1.555 1.555-1.555.834 0 1.556.722 1.556 1.555 0 .834-.722 1.556-1.556 1.556z" fill="#fff"/>
  <path d="M435 519c0 19.882 16.118 36 36 36s36-16.118 36-36-16.118-36-36-36-36 16.118-36 36z" fill="url(#paint0_linear)"/>
  <path d="M469.6 501h-11.4l3 4.2v27.6l-3.6 4.2h25.8l4.2-6h-18v-30z" fill="url(#paint1_linear)"/>
  <path d="M458.8 508.442A16.747 16.747 0 00454 520.2c0 4.567 1.822 8.708 4.779 11.736l.021-.024v-3.749a14.338 14.338 0 01-2.4-7.963c0-2.944.884-5.682 2.4-7.963v-3.795z" fill="url(#paint2_linear)"/>
  <path d="M482.497 528.6a14.333 14.333 0 002.703-8.4c0-7.549-5.809-13.741-13.2-14.351v-2.407c8.718.615 15.6 7.883 15.6 16.758 0 3.06-.818 5.929-2.248 8.4h-2.855z" fill="url(#paint3_linear)"/>
  <path d="M479.369 528.6a11.962 11.962 0 003.43-8.4c0-6.223-4.735-11.339-10.799-11.941V528.6h7.369z" fill="url(#paint4_radial)"/>
  <path d="M469 134c0-19.882 16.118-36 36-36s36 16.118 36 36-16.118 36-36 36-36-16.118-36-36z" fill="#5865F2"/>
  <path d="M517.508 122.542a29.736 29.736 0 00-7.335-2.275.114.114 0 00-.068.009.108.108 0 00-.05.047c-.336.61-.641 1.236-.914 1.876a27.417 27.417 0 00-8.239 0 18.87 18.87 0 00-.927-1.876.117.117 0 00-.118-.056c-2.534.437-5 1.202-7.336 2.275a.103.103 0 00-.048.042c-4.672 6.98-5.952 13.788-5.324 20.512a.124.124 0 00.047.085 29.887 29.887 0 008.999 4.549.12.12 0 00.07-.001.12.12 0 00.056-.041 21.321 21.321 0 001.841-2.994.105.105 0 00.012-.046.108.108 0 00-.034-.087.107.107 0 00-.04-.026 19.723 19.723 0 01-2.811-1.34.114.114 0 01-.057-.093.115.115 0 01.045-.099c.19-.141.378-.288.558-.437a.114.114 0 01.056-.025.106.106 0 01.061.009c5.898 2.693 12.283 2.693 18.111 0a.107.107 0 01.061-.01.108.108 0 01.057.024c.18.15.37.298.56.44a.113.113 0 01.045.098.115.115 0 01-.055.093c-.898.525-1.83.968-2.812 1.339a.136.136 0 00-.041.026.11.11 0 00-.033.088c0 .016.005.032.012.046a23.904 23.904 0 001.84 2.993c.028.04.08.057.126.043 2.945-.911 5.931-2.286 9.014-4.55a.122.122 0 00.032-.036.125.125 0 00.015-.046c.751-7.774-1.26-14.527-5.329-20.513a.094.094 0 00-.047-.043zm-18.465 16.46c-1.776 0-3.239-1.63-3.239-3.632 0-2.002 1.435-3.632 3.239-3.632 1.818 0 3.267 1.644 3.239 3.632 0 2.002-1.435 3.632-3.239 3.632zm11.975 0c-1.776 0-3.239-1.63-3.239-3.632 0-2.002 1.435-3.632 3.239-3.632 1.818 0 3.267 1.644 3.239 3.632 0 2.002-1.42 3.632-3.24 3.632h.001z" fill="#fff"/>
  <path d="M662 82c0-11.046 8.954-20 20-20s20 8.954 20 20-8.954 20-20 20-20-8.954-20-20z" fill="#1877F2"/>
  <path d="M692 82a10.002 10.002 0 00-17.071-7.071A10.002 10.002 0 00672 82c0 5 3.667 9.167 8.444 9.889v-7h-2.555V82h2.555v-2.222c0-2.5 1.5-3.89 3.778-3.89 1.111 0 2.222.223 2.222.223v2.445h-1.277c-1.223 0-1.611.777-1.611 1.555V82h2.777l-.444 2.889h-2.333v7C688.333 91.167 692 87 692 82z" fill="#fff"/>
  <path d="M252 646c0 30.928 25.072 56 56 56s56-25.072 56-56-25.072-56-56-56-56 25.072-56 56z" fill="url(#paint5_linear)"/>
  <path d="M320.6 618h-25.2c-8.556 0-15.4 7-15.4 15.4v25.044c0 8.556 7 15.4 15.4 15.4h25.044c8.556 0 15.4-7 15.4-15.4V633.4C336 625 329 618 320.6 618zm10.422 40.6c0 5.756-4.666 10.422-10.422 10.422h-25.2c-5.756 0-10.422-4.666-10.422-10.422v-25.2c0-5.756 4.666-10.422 10.422-10.422h25.044c5.756 0 10.423 4.666 10.423 10.422l.155 25.2z" fill="#fff"/>
  <path d="M308 631.533c-7.933 0-14.467 6.534-14.467 14.467 0 7.933 6.534 14.467 14.467 14.467 7.933 0 14.467-6.534 14.467-14.467 0-7.933-6.534-14.467-14.467-14.467zm0 23.956c-5.289 0-9.489-4.2-9.489-9.489 0-5.289 4.2-9.489 9.489-9.489 5.289 0 9.489 4.2 9.489 9.489 0 5.289-4.2 9.489-9.489 9.489zM323.089 627.333c-.934 0-1.867.311-2.645 1.089a3.755 3.755 0 00-1.089 2.645c0 .933.467 1.866 1.089 2.644a3.756 3.756 0 002.645 1.089c.933 0 1.866-.467 2.644-1.089a3.752 3.752 0 001.089-2.644c0-.934-.311-1.867-1.089-2.645-.778-.622-1.711-1.089-2.644-1.089z" fill="#fff"/>
  <path d="M1031 112c0 30.928 25.07 56 56 56s56-25.072 56-56-25.07-56-56-56-56 25.072-56 56z" fill="#9146FF"/>
  <path d="M1073.47 85.711l-9.96 9.956V131.6h11.98v9.956l9.95-9.956h7.94l18.04-18.044v-28h-37.95v.155zm34.06 25.978l-8.09 8.089h-7.93l-7 7v-7h-9.02V89.755h32.04v21.934z" fill="#fff"/>
  <path d="M1101.62 96.756h-4.04v11.977h4.04V96.756zM1090.58 96.756h-4.05v11.977h4.05V96.756z" fill="#fff"/>
  <path d="M173 175c0 30.928 25.072 56 56 56s56-25.072 56-56-25.072-56-56-56-56 25.072-56 56z" fill="#1DA1F2"/>
  <path d="M257 157.733c-2.022.934-4.2 1.556-6.533 1.867 2.333-1.4 4.2-3.733 4.977-6.378-2.177 1.245-4.666 2.334-7.311 2.8-2.022-2.178-5.133-3.578-8.4-3.578a11.486 11.486 0 00-11.511 11.512c0 .933.156 1.711.311 2.644-9.489-.467-18.044-4.978-23.644-11.978-.933 1.711-1.556 3.734-1.556 5.756 0 4.044 2.023 7.466 5.134 9.489-1.867 0-3.578-.623-5.134-1.4v.155c0 5.6 3.889 10.267 9.178 11.2a9.768 9.768 0 01-2.955.467c-.778 0-1.4 0-2.178-.156 1.4 4.511 5.755 7.934 10.733 7.934-3.889 3.111-8.867 4.977-14.311 4.977-.933 0-1.867 0-2.8-.155 5.133 3.267 11.044 5.133 17.578 5.133 21.155 0 32.666-17.422 32.666-32.666V163.8c2.178-1.867 4.2-3.889 5.756-6.067z" fill="#fff"/>
  <path d="M926 774c0 30.928 25.072 56 56 56 30.93 0 56-25.072 56-56s-25.07-56-56-56c-30.928 0-56 25.072-56 56z" fill="#C4302B"/>
  <path d="M1008.91 760.467c-.62-2.334-2.49-4.356-4.98-4.978C999.578 754.4 982 754.4 982 754.4s-17.578 0-21.933 1.089c-2.334.622-4.356 2.644-4.978 4.978C954 764.978 954 774 954 774s0 9.178 1.089 13.533c.622 2.334 2.489 4.356 4.978 4.978 4.355 1.245 21.933 1.245 21.933 1.245s17.578 0 21.93-1.089c2.34-.623 4.36-2.489 4.98-4.978C1010 783.178 1010 774 1010 774s0-9.022-1.09-13.533zM976.4 782.4v-16.8l14.622 8.4-14.622 8.4z" fill="#fff"/>
  <path d="M1314 400c0-11.046 8.95-20 20-20s20 8.954 20 20-8.95 20-20 20-20-8.954-20-20z" fill="#2787F5"/>
  <path fill-rule="evenodd" clip-rule="evenodd" d="M1342.89 394.872c.14-.466 0-.805-.66-.805h-2.18c-.56 0-.82.294-.96.616 0 0-1.11 2.711-2.68 4.473-.51.511-.74.666-1.02.666-.13 0-.34-.155-.34-.622v-4.333c0-.556-.16-.8-.62-.8h-3.44c-.35 0-.55.261-.55.5 0 .527.78.65.87 2.133v3.222c0 .7-.13.834-.41.834-.74 0-2.54-2.723-3.61-5.834-.21-.611-.42-.855-.98-.855h-2.19c-.62 0-.74.294-.74.616 0 .584.74 3.45 3.44 7.25 1.81 2.595 4.36 4 6.67 4 1.39 0 1.56-.311 1.56-.85v-1.961c0-.622.13-.75.57-.75.33 0 .89.167 2.18 1.411 1.48 1.484 1.72 2.15 2.56 2.15h2.18c.63 0 .94-.311.76-.927-.19-.612-.9-1.506-1.84-2.562-.51-.605-1.28-1.25-1.5-1.577-.33-.417-.24-.6 0-.973 0 0 2.66-3.75 2.93-5.022z" fill="#fff"/>
  <path d="M1234 251c0 19.882 16.12 36 36 36s36-16.118 36-36-16.12-36-36-36-36 16.118-36 36z" fill="#000"/>
  <path d="M1287.9 239.537l-.07-.7-.63-.446c-2.68-1.845-7.77-4.009-16.87-4.009-3.44 0-6.56.318-9.29.954a5.505 5.505 0 00-3.57-1.336 5.47 5.47 0 00-5.47 5.474c0 .955.25 1.846.7 2.673.13 4.71 1.59 9.611 4.46 14.575 4.71 7.956 9.73 10.311 12.15 11.393.19.064.32.127.45.191l.63.318.64-.318c.13-.064.32-.128.45-.192 2.48-1.082 7.44-3.437 12.03-11.393 5.02-8.719 4.58-15.083 4.39-17.184z" fill="url(#paint6_linear)"/>
  <path d="M1275.42 262.072c.24.649.37 1.618-.47 2.319-.07.052-.14.113-.22.165-.06.043-.12.078-.18.121-1.01.71-1.93 1.212-2.7 1.593-.57.285-1.06.519-1.45.701h-.01v-1.212a21.206 21.206 0 005-3.748c.01.017.02.043.03.061z" fill="url(#paint7_linear)"/>
  <path d="M1282.04 250.957c.47.597.78 1.273.83 1.948-.32-.32-.81-.424-1.4-.468.21-.502.4-.995.57-1.48z" fill="url(#paint8_linear)"/>
  <path d="M1282.17 255.96c-.13.217-.25.433-.38.641-.13.208-.26.415-.38.614-.12.191-.24.373-.36.554-.13.208-.26.407-.4.606-.13.182-.25.364-.38.546-.25.337-.48.658-.72.961-.15.19-.3.372-.45.554-.24.294-.49.571-.72.839-.19.208-.38.416-.58.615-.14.147-.29.294-.42.433-.2.19-.39.372-.58.536-.2.199-.4.372-.61.546.09-.58-.04-1.212-.34-1.879 1.65-1.766 3.14-3.93 4.48-6.587.2-.407.39-.814.58-1.212h.05c1.27 0 2.03.892 1.21 2.233z" fill="url(#paint9_linear)"/>
  <path d="M1285.14 249.434c-.07.225-.16.467-.24.701a22.78 22.78 0 01-.62 1.532c-.25-.727-.88-1.489-1.77-2.129 1.11-3.662 1.24-6.596 1.06-8.345l2.76-1.532.03.485c.12 1.792.21 4.986-1.22 9.288z" fill="url(#paint10_linear)"/>
  <path d="M1273.39 248.639l-1.09.955.83.254.83-.891-.45-.191-.12-.127zm1.46.636l-.38-.127-.89 1.018.63.191c.13-.509.64-1.082.64-1.082zm-4.97-3.182c.39.446.77 1.082.77 1.082.63-.636 1.97-.89 3.69-.827-2.42-.51-4.46-.255-4.46-.255zm5.99.509s-.13.255-.19.319c-.07.064-.51.127-.77.191-.25.127-.7.319-.82.446-.07.064-.07.254-.07.318 0 0 .04.019.09.036-.01-.012-.02-.023-.02-.036v-.191s.82-.636 2.1-.636l.19-.382-.51-.065zm-8.34-1.463s.7 0 1.66.191c-.64-.446-1.66-.7-1.66-.7v.509zm2.35 2.227l.2.064.38-.064c-.7-.891-1.53-.955-1.53-.955.38.254.95.955.95.955zm2.81-3.182c-.07-.127-.2-.127-.96-.255-.7-.064-1.34-.127-1.46-.127-.13 0-.19.064-.19.064s-.39.255-.7.446c-.32.191-.39.254-.45.382-.06.064.13.318.13.318l.51.636c.06 0 .25.128.25.128s1.02-.064 1.66-.128h1.65c.06 0 0-.254-.13-.573-.12-.255-.31-.891-.31-.891zm1.49 3.78l.03-.025a.332.332 0 01-.1-.028c.02.02.04.038.07.053zm-7.99-4.353s.45.254.51.254c.07 0 .96.319 1.34.446.32.127.51 0 .57 0 .07 0 1.15-.636 1.15-.636-.96-.382-1.85-.636-1.85-.636-.06-.001-1.72.572-1.72.572zm.89 1.336l.2.064s.12 0 .12-.127v-.254l-.19-.128-.25-.064c.06.064.06.128.06.128h.06c0-.065.07-.065.07 0 0 0 .13.064.06.254.07.063-.06.127-.13.127zm6.11-.064l.39.7 1.27.446c-.51-1.082-1.34-1.273-1.34-1.273l-.32.127zm-8.46.573s-.19-.254-.38-.127c-.14.094-.28.329-.32.573l-.38.126c-.13-.254-.7-.954-.7-.954l-.13.509c.06.064.38.573.45.7l-.19.192s-.07.127-.07.191-.06.128-.06.128l-.26.127h-.06l-.89-.7v.509h.06c.07.127.19.381.51.509.26.127.57.127.7.063.13.064.19.064.26.127.25.127.31.063.31.063l.39-.127h.06l.06-.064.13-.255s.64.064.89.064c.26-.381 1.08-.954 1.66-1.018.57 0 1.52.128 2.29.891.7.764.51 1.782.51 1.782l1.4.446-.64-.446c-.51-1.273-1.72-2.418-1.72-2.418s-.32-.064-.51-.064a.832.832 0 01-.31-.191s-.07-.064-.2-.255l-.12-.254s-.13-.128-.32-.255-.89-.191-1.27-.254c-.39-.064-.39 0-.39 0 1.09.254 1.4.318 1.47.381 0 0 .06.128.12.192-.89-.192-1.71-.064-1.9 0 .12.191.12.445 0 .636-.13.127-.51.318-.51.318h-.13l-.32-.063c-.29-.057-.21-.525-.19-.617a.624.624 0 000 .236c.06.318.13.318.32.318-.32-.127-.26-.636 0-.955.19-.254.38-.064.38-.064zm-2.29.955l.13-.063v-.51l-.13.064v.509zm-.64-3.119c-.32.382-.44.891-.44.891s-.07.891-.07 1.018c-.06.127.13.191.13.191l-.06.7h.38l.06-.445v.254h.06v-.382h-.06v-.254l.57.318.07.128.13.127h.12l.07-.064v-.063c-.39 0-.39-.192-.39-.192s.07-.445.13-.573c.06-.127.32-.064.32-.064l-.06-.062h-.13c-.13-.064-.51-.319-.64-.382v-.064l.07-.064v-.254h.06c0-.063.06-.063.06-.128.13 0 1.09-.191 1.09-.191l-.04-.008c.15-.017.42-.056.42-.056l-1.21-.318-.07.191v-.064a3.04 3.04 0 01-.57-.19zm15.6 6.62l-.51.7v.064h.7c.12-.446-.19-.764-.19-.764zm-.7 2.291l-.26-.764h-.06l-.38.701.06.063c.32.127.64 0 .64 0zm-2.93-3.628l1.4.446c.32-.255.76-.319.76-.319-.25-.127-1.33-.573-1.65-.7 0 0-.05-.016-.09-.038l-.55.484.13.127zm2.42 2.164c-.32.636-.26 1.082-.26 1.082l.32-.7v-.127c.06 0 0-.128-.06-.255zm.57.446l.19.827s.19-.191.38-.445c.19-.255.26-.509.26-.509l-.77.064-.06.063zm-.38-.764l.12.192.07-.064.51-.637v-.063c-.26-.001-.7.572-.7.572zm-9.55-5.983v.001c-.02-.058-.06-.065-.06-.065-.04 0-.09.039-.13.085l.06-.022.13.001zm-4.01-1.082c1.02.128 1.21.319 1.21.319s.38-.064.57-.064c-.32-.255-1.72-.7-1.72-.7s-.06.191-.06.445zm3.82 1.103l-.13.042-.06.446h.06l.13-.064c-.06-.127-.06-.191-.06-.318 0-.028.03-.069.06-.106zm-6.05.297c0 .191.13.191.13.191l-.06.701h.44v-.065h-.06v-.063h-.07l.07-.127.06-.318-.06-.065v-.127l.06-.063.07-.763-.29-.174c-.08.061-.16.124-.24.18-.02.254-.05.613-.05.693zm1.72 1.592h.06v-.446l-.06.446zm-.13-.064h.07v-.446l-.07.446zm24.15-6.62c-11-3.181-23.33-1.458-23.27-.576.01.127.02.255.02.385a5.51 5.51 0 01-1.37 3.637c.18.061.43.122.73.182l.13-.318s.12 0 .19.064c0-.319.19-.319.19-.319s0-.063.06-.063c.32.063 1.21.509 1.59.7.39.192.39.255.39.255s.89 0 1.14-.063c.26 0 .7-.192 1.34-.382.63-.191.76-.255.89-.255s1.27.064 2.29.192c1.02.127 1.97.509 2.16.636l.32.063.07-.191-.51-.192s.06-.318.06-.381.07-.127.13-.127.64.127.83.191c.19.063.82.509.89.509.06 0 .06.064.06.064 0 .127-.13.382-.13.382s.19.064.26.127c.06.063.25.191.44.382.19.127.13.318.13.318l.45.446v.191l1.08 1.082v.064l-.51.317s.7-.064 1.21.191.57.382.57.509c-.13.064-.32.128-.32.128-.38.127-1.34.763-1.34.763v.064l.51.127c.58-.509 1.59-.7 2.36-.573 1.21.237 2.29.733 3.14 1.343.89.64 4-7.955 3.82-9.872zm-5.37 14.067c-1.34 0-2.67-.446-3.63-1.591v.064c-.57.763-1.21.763-1.46.763-.26 0-1.08-.382-1.4-.763-.32-.382-.32-1.082-.32-1.082l-1.27-.446-1.6-.891-.25-.064c-.51.255-1.15.064-1.72-.382-.06.255-.38.891-.76 1.21-.38.317-1.15.763-1.72.763-.57 0-1.85-.636-2.23-1.528-.38-.891 0-1.845 0-1.845l-.63-.127-.26-.319s-.76.636-1.59.382c-.83-.255-1.53-.955-1.72-1.591-.13-.636.07-1.209.13-1.274-.13-.445-.13-.7-.13-.7h-.06v-.066c-.82.484-1.78.766-2.8.766-1.16 0-2.23-.353-3.11-.956.13 1.388.51 3.019 1.01 4.839.7 2.545 2.99 3.373 6.43 3.946 6.34 1.014 12.47 5.244 13.98 8.685.3.666 2.55-1.2 4.59-4.701.82-1.336 1.79-3.092.52-3.092zm-3.76-4.774c.07.063.13.063.2.127.38.254.57.382.63.955.07.446-.06 1.082-.38 1.655 1.18.801 2.67.652 3.82.738.58.044.7-.292.7-.292s.33-.58-.13-1.18c-1.21-1.564-3.46-2.646-4.84-2.003zm-17.37 5.792c-.83 0-1.78.319-1.21 1.21 4.71 8.083 9.67 9.992 11.77 11.011.96-.446 1.62-1.145 3.47-2.419 1.08-.7 1.82-1.782 1.56-2.482-1.33-3.31-8.65-7.065-15.59-7.32zm2.29-8.528v-.446l-.06.446h.06zm4.65 1.845l.51.382.12-.063.58-.891c-.7-.064-1.21.572-1.21.572zm.89 2.291l-.38-.954h-.13l-.64.763c.45.383 1.15.191 1.15.191zm-.83-5.918c.02.037.02.09 0 .19 0 .254-.19.254-.19.254s.06 0 .19.064c.13 0 .19-.127.19-.254 0-.186-.18-.25-.19-.254zm-.32 4.009c-.44.827-.13 1.4-.13 1.4l.58-.827v-.127l-.45-.446zm-4.64-2.419h.06v-.381l-.06.381zm.12.064h.07v-.382l-.07-.063v.445zm6.81 2.991l-1.02.064-.06.063.32 1.019c.64-.446.76-1.146.76-1.146zm-.51-1.464l-.51.891.07.063 1.02.064c0-.699-.58-1.018-.58-1.018z" fill="url(#paint11_radial)"/>
  <path d="M1286.33 239.665c-1.91-1.337-6.58-3.755-15.94-3.755-3.24 0-5.98.318-8.14.763.44.7.7 1.528.76 2.419 2.42-.446 5.03-.701 7.83-.637 5.98.064 10.82 1.401 12.79 2.737l2.7-1.527z" fill="url(#paint12_radial)"/>
  <path d="M1257.54 243.42a3.94 3.94 0 003.94-3.946 3.94 3.94 0 00-3.94-3.946 3.95 3.95 0 00-3.95 3.946c0 2.18 1.77 3.946 3.95 3.946z" fill="url(#paint13_radial)"/>
  <path d="M1275.42 262.072c-.01-.018-.02-.044-.03-.061a21.206 21.206 0 01-5 3.748v1.212h.01c.39-.182.88-.416 1.45-.701.76-.398 1.68-.909 2.7-1.593.06-.043.12-.078.18-.121.08-.052.15-.113.22-.165.84-.701.71-1.67.47-2.319zm6.62-11.115c-.17.485-.36.978-.57 1.48.59.044 1.08.148 1.4.468-.05-.675-.36-1.351-.83-1.948zm-1.08 2.77h-.05c-.19.398-.38.805-.58 1.212-1.34 2.657-2.83 4.821-4.48 6.587.3.667.43 1.299.34 1.879 2.54-1.682 5.85-7.228 5.98-7.445.82-1.341.06-2.233-1.21-2.233zm5.4-13.581l-.03-.485-2.76 1.532c.18 1.749.05 4.683-1.06 8.345.89.64 1.52 1.402 1.77 2.129.23-.519.44-1.03.62-1.532.08-.234.17-.476.24-.701 1.45-4.242 1.37-7.488 1.22-9.288z" fill="url(#paint14_linear)"/>
  <path d="M1124 459c0-19.882 16.12-36 36-36s36 16.118 36 36-16.12 36-36 36-36-16.118-36-36z" fill="orange"/>
  <path d="M1160.25 441h1c.7.263 1.38.627 1.99 1.04.2.79.54 1.631.24 2.439-.25.223-.59.315-.9.452.04.311.09.621.14.93.58-.046 1.14-.191 1.7-.295.08-.321.1-.671.31-.943.05.217.08.437.11.658.3.168.6.407.97.369 2.37.002 4.74-.007 7.1.001.26-.02.39.245.57.38 0-.48 0-.961.02-1.442l.28.006c.02.422-.03.855.09 1.267.13.029.27.038.41.054 0 .165.01.33.02.496.72.02 1.46.067 2.18-.052.49-.07.98-.022 1.47-.021 0 .164.02.328.05.492-.6.042-1.21.081-1.82-.015-.96-.112-1.92.083-2.88.031l-.09.375c-.93.01-1.85-.005-2.78-.001-.3-.007-.64.056-.83.303-.27.325-.6.602-.87.934-.08.609.17 1.199.31 1.783-.21.076-.43.147-.65.225-.22.658-.13 1.501-.76 1.962-.35.25-.66.562-1.05.74-.29.125-.61-.006-.9-.047-1.08-.157-1.98-.795-2.95-1.235-.06.251-.13.499-.2.748.29.182.67.338.77.696.14.523.02 1.073 0 1.607-.05.489-.06.981-.11 1.471-.05.475-.33.884-.63 1.253-.28-.064-.55-.141-.82-.21-.29.604-.05 1.354.44 1.803 1.26 1.311 1.94 2.998 2.58 4.642.11.347.48.552.54.918.11.388.26.777.23 1.184-.05.715-.11 1.43-.18 2.142-.05.523-.26 1.045-.14 1.573.09.43.15.885-.02 1.306-.22.529-.22 1.108-.22 1.67.01.369.03.776.3 1.069.32.374.63.762 1.01 1.081.47.294 1.11.296 1.5.722.12.233.03.504.03.753-1.22.177-2.5.19-3.68-.174-.67-.208-1.41.149-2.05-.203.03-.732.22-1.446.49-2.13.11-.509-.01-1.037-.02-1.554-.01-.446-.25-.84-.34-1.269-.27-.921-.34-1.879-.39-2.83-.06-.467.36-.819.37-1.275.09-.404.03-.819-.23-1.153-.46-.013-1.07.101-1.32-.366-.54-.752-1.05-1.515-1.58-2.267-.19-.325-.63-.248-.94-.391-.27-.239-.4-.577-.57-.882-.1.349-.24.699-.51.963-.42.41-.58.979-.8 1.498-.15.375-.29.76-.35 1.161-.06.303-.07.658-.36.856-.41.302-.56.811-.94 1.143-.29.258-.46.611-.56.97-.03.324.07.653-.01.973-.16.586-.5 1.104-.74 1.654-.18.387-.27.804-.46 1.185-.13.266-.46.352-.64.576-.52.86-.69 1.897-.5 2.872.15.387.25.792.16 1.208-.32.042-.64.093-.96.121h-1c-.26-.052-.52-.09-.76-.207-.18-.529-.15-1.109.01-1.639.24-.798.45-1.601.66-2.403.14-.393-.2-.746-.17-1.139-.03-.58.34-1.059.62-1.543.25-.43.16-.948.34-1.402.4-.985 1.15-1.787 1.61-2.748.13-.392-.02-.808.01-1.211.03-.764.19-1.518.33-2.271.05-.29.14-.596.03-.881-.13-.341-.22-.703-.17-1.066.06-.335-.15-.667-.02-.993.07-.277.33-.433.55-.606.03-1.138-.4-2.257-.22-3.392.21-.246.54-.334.83-.458-.42-.084-.85-.169-1.27-.259-.02-.459.05-.914.15-1.362.15-.7.07-1.423.19-2.127.01-.178.22-.239.38-.245.38-.027.77-.045 1.15-.132-.11-.889-.2-1.797 0-2.682.21-1.044.7-2.102 1.61-2.749.63-.407 1.55-.648 2.21-.162.05-.035.16-.105.21-.14-.38-.988-.3-2.131.31-3.021.39-.607 1.08-.952 1.78-1.162zm6.18 6.8c-.03.259-.11.515-.37.639.34-.021.69-.02 1.03-.091-.01-.19-.01-.379-.02-.568-.21.004-.43.01-.64.02zm-.71.731l-.12.144c.06.351.33.637.51.941.27-.358.54-.715.79-1.082-.39-.017-.79-.042-1.18-.003z" fill="#1D2C49"/>
  <path d="M1216 669c0 19.882 16.12 36 36 36s36-16.118 36-36-16.12-36-36-36-36 16.118-36 36z" fill="url(#paint15_linear)"/>
  <path fill-rule="evenodd" clip-rule="evenodd" d="M1260.36 651H1244v36l8.18-2.769v-10.322h4.91l1.64-8.182h-6.55v-6.545h6.55l1.63-8.182z" fill="#fff"/>
  <path d="M290 408c0 19.882 16.118 36 36 36s36-16.118 36-36-16.118-36-36-36-36 16.118-36 36z" fill="#FF4655"/>
  <path d="M308.302 393.065l23.59 29.969c.089.114.01.282-.133.282h-11.622a.168.168 0 01-.131-.064l-11.968-15.033a.172.172 0 01-.038-.109v-14.937c0-.163.202-.235.302-.108zM328.259 412.823l15.439-19.585c.1-.128.302-.055.302.108v14.85c0 .04-.014.079-.039.11l-3.816 4.735a.167.167 0 01-.131.063h-11.622c-.143 0-.222-.168-.133-.281z" fill="#fff"/>
  <path d="M1048 576c0 11.046 8.95 20 20 20s20-8.954 20-20-8.95-20-20-20-20 8.954-20 20z" fill="url(#paint16_linear)"/>
  <path d="M1068 565.944c-5.28 0-9.61 4.112-10 9.334l5.39 2.222c.44-.333 1-.5 1.61-.5h.17l2.39-3.5v-.056c0-2.111 1.72-3.833 3.77-3.833 2.11 0 3.78 1.722 3.78 3.833 0 2.112-1.72 3.834-3.78 3.834h-.11l-3.39 2.444v.111c0 1.556-1.27 2.889-2.83 2.889-1.39 0-2.5-1-2.78-2.278l-3.83-1.611c1.17 4.278 5.05 7.389 9.67 7.389 5.55 0 10.05-4.555 10.05-10.111-.05-5.611-4.55-10.167-10.11-10.167zm-3.72 15.389l-1.22-.5c.22.445.61.834 1.11 1.056 1.11.444 2.33-.056 2.77-1.167.23-.5.23-1.111 0-1.666a2.01 2.01 0 00-1.16-1.167 1.91 1.91 0 00-1.56 0l1.28.555c.78.334 1.17 1.278.83 2.056a1.568 1.568 0 01-2.05.833zm9.55-7.889c0-1.388-1.11-2.555-2.5-2.555s-2.5 1.167-2.5 2.555c0 1.389 1.11 2.556 2.5 2.556s2.5-1.111 2.5-2.556zm-4.39 0c0-1.055.84-1.888 1.89-1.888 1.06 0 1.89.833 1.89 1.888 0 1.056-.83 1.889-1.89 1.889-1.05.056-1.89-.833-1.89-1.889z" fill="#fff"/>
  <path d="M1083 331c0-11.046 8.95-20 20-20s20 8.954 20 20-8.95 20-20 20-20-8.954-20-20z" fill="#141616"/>
  <path d="M1111.52 339.025v-.024h-.05v-.023h-.07v-.024h-.05v-.023h-.07v-.024h-.05v-.023h-.07v-.024h-.07v-.023h-.04v-.024h-.07v-.023h-.05v-.024h-.07v-.023h-.05v-.024h-.07v-.023h-.05v-.024h-.07v-.023h-.04v-.024h-.07v-.023h-.05v-.024h-.07v-.023h-.05v-.023h-.07v-.024h-.07v-.023h-.05v-.024h-.07v-.023h-.04v-.024h-.07v-.023h-.05v-.024h-.07v-.023h-.05v-.024h-.07v-.023h-.05v-.024h-.07v-.023h-.07v-.024h-.04v-.023h-.07v-.024h-.05v-.023h-.07v-.024h-.05v-.023h-.07v-.024h-.05v-.023h-.07v-.023h-.04v-.024h-.07v-.023h-.05v-.024h-.07v-.023h-.07v-.024h-.05v-.023h-.07v-.024h-.05v-.023h-.07v-.024h-.04v-.023h-.07v-.024h-.05v-.023h-.07v-.024h-.05v-.023h-.07v-.024h-.07v-.023h-.05v-.024h-.07v-.023h-.04v-.024h-.07v-.023h-.05v-.024h-.07v-.023h-.05v-.023h-.07v-.024h-.05v-.023h-.07v-.024h-.07v-.023h-.04v-.024h-.07v-.023h-.05v-.024h-.07v-.023h-.05v-.024h-.07v-.023h-.05v-.024h-.07v-.023h-.04v-.024h-.07v-.023h-.07v-.024h-.05v-.023h-.07v-.024h-.05v-.023h-.07v-.024h-.05v-.023h-.07v-.023h-.04v-.024h-.07v-.023h-.05v-.024h-.07v-.023h-.07v-.024h-.05v-.023h-.07v-.024h-.05v-.023h-.07v-.024h-.04v-.023h-.07v-.024h-.05v-.023h-.07v-.024h-.07v-.023h-.05v-.024h-.07v-.023h-.05v-.024h-.07v-.023h-.04v-.024h-.07v-.023h-.05v-.023h-.07v-.024h-.05v-.023h-.07v-.024h-.07v-.023h-.05v-.024h-.07v-.023h-.04v-.024h-.07v-.023h-.05v-.024h-.07v-.023h-.05v-.024h-.07v-.023h-.07v-.024h-.05v-.023h-.07v-.024h-.04v-.023h-.07v-.024h-.05v-.023h-.07v-.024h-.05v-.023h-.07v-.024h-.07v-.023h-.05v-.023h-.07v-.024h-.04v-.023h-.07v-.024h-.05v-.023h-.07v-.024h-.05v-.023h-.07v-.024h-.07v-.023h-.05v-.024h-.07v-.023h-.04v-.024h-.07v-.023h-.05v-.024h-.07v-.023h-.07v-.024h-.05v-.023h-.07v-.024h-.04v-.023h-.08v-.024h-.04v-.023h-.07v-.023h-.05v-.024h-.07v-.023h-.07v-.024h-.05v-.023h-.07v-.024h-.04v-.023h-.08v-.024h-.04v-.023h-.07v-.024h-.07v-.023h-.05v-.024h-.07v-.023h-.05v-.024h-.07v-.023h-.04v-.024h-.08v-.023h-.07v-.024h-.04v-.023h-.07v-.024h-.05v-.023h-.07v-.023h-.05v-.024h-.07v-.023h-.04v-.024h-.08v-.023h-.07v-.024h-.04v-.023h-.07v-.024h-.05v-.023h-.07v-.024h-.05v-.023h-.07v-.024h-.07v-.023h-.05v-.024h-.07v-.023h-.04v-.024h-.07v-.023h-.05v-.024h-.07v-.023h-.07v-.024h-.05v-.023h-.07v-.024h-.05v-.023h-.07v-.023h-.04v-.024h-.07v-.023h-.07v-.024h-.05v-.023h-.07v-.024h-.05v-.023h-.07v-.024h-.05v-.023h-.07v-.024h-.07v-.023h-.04v-.024h-.07v-.023h-.05v-.024h-.07v-.023h-.07v-.024h-.05v-.023h-.07v-.024h-.05v-.023h-.07V334h-.04v-.023h-.07v-.023h-.07v-.024h-.05v-.023h-.07v-.024h-.05v-.023h-.07v-.024h-.05v-.023h-.07v-.024h-.07v-.023h-.04v-.024h-.07v-.023h-.05v-.024h-.07v-.023h-.07v-.024h-.05v-.023h-.07v-.024h-.05v-.023h-.07v-.024h-.07v-.023h-.04v-.024h-.07v-.023h-.05v-.023h-.07v-.024h-.05v-.023h-.07v-.024h-.07v-.023h-.05v-.024h-.07v-.023h-.04v-.024h-.07v-.023h-.07v-.024h-.05v-.023h-.07v-.024h-.05v-.023h-.07v-.024h-.07v-.023h-.05v-.024h-.07v-.023h-.04v-.024h-.07v-.023h-.08v-.024h-.04v-.023h-.07v-.024h-.05v-.023h-.07v-.023h-.07v-.024h-.05v-.023h-.07v-.024h-.04v-.023h-.08v-.024h-.07v-.023h-.04v-.024h-.07v-.023h-.05v-.024h-.07v-.023h-.07v-.024h-.05v-.023h-.07v-.024h-.04v-.023h-.08v-.024h-.07v-.023h-.04v-.024h-.07v-.023h-.05v-.024h-.07v-.023h-.07v-.023h-.05v-.024h-.07v-.023h-.07v-.024h-.05v-.023h-.07v-.024h-.04v-.023h-.07v-.024h-.07v-.023h-.05v-.024h-.07v-.023h-.05v-.024h-.07v-.023h-.07v-.024h-.05v-.023h-.07v-.024h-.07v-.023h-.04v-.024h-.07v-.023h-.05v-.024h-.07v-.023h-.07v-.023h-.05v-.024h-.07v-.023h-.07v-.024h-.05v-.023h-.07v-.024h-.04v-.023h-.07v-.024h-.08v-.023h-.04v-.024h-.07v-.023h-.07v-.024h-.05v-.023h-.07v-.024h-.05v-.023h-.07v-.024h-.07v-.023h-.05v-.024h-.07v-.023h-.07v-.024h-.04v-.023h-.07v-.024h-.07v-.023h-.05v-.023h-.05v-.047h-.02v-.165h.02v-.023h.03v-.024h.02v-.023h.05v-.024h14.58v-.023h.02v-.047h.02v-.047h.03v-.024h.02v-.046h.02v-.024h.03v-.047h.02v-.023h.02v-.047h.03v-.024h.02v-.047h.02v-.047h.03v-.023h.02v-.047h.02v-.024h.03v-.047h.02v-.023h.02v-.047h.03v-.047h.02v-.023h.02v-.047h.03v-.024h.02v-.047h.03v-.023h.02v-.047h.02v-.024h.03v-.047h.02v-.047h.02v-.023h.03v-.047h.02v-.024h.02v-.047h.03v-.023h.02v-.047h.02v-.047h.03v-.023h.02v-.047h.02v-.024h.03v-.047h.02v-.023h.02v-.047h.03v-.024h.02v-.047h.02v-.047h.03v-.023h.02v-.047h.03v-.023h.02v-.047h.02v-.024h.03v-.047h.02v-.023h.02v-.047h.03v-.047h.02v-.024h.02v-.047h.03v-.023h.02V329h.02v-.024h.03v-.047h.02v-.023h.02v-.047h.03v-.047h.02v-.023h.02v-.047h.03v-.024h.02v-.047h.02v-.023h.03v-.047h.02v-.024h.03v-.047h.02v-.047h.02v-.023h.03v-.047h.02v-.024h.02v-.046h.03v-.024h.02v-.047h.02v-.023h.03v-.047h.02v-.047h.02v-.024h.03v-.047h.02v-.023h.02v-.047h.03v-.024h.02v-.047h.02v-.023h.03v-.047h.02v-.047h.02v-.023h.03v-.047h.02v-.024h.03v-.047h.02v-.023h.02v-.047h.03v-.024h.02v-.047h.02v-.023h.03v-.047h.02v-.047h.02v-.024h.03v-.047h.02v-.023h.02v-.047h.03v-.023h.02v-.047h.02v-.024h.03v-.047h.02v-.023h.02v-.047h.03v-.047h.02v-.024h.02v-.047h.03v-.023h.02v-.047h.03v-.024h.02v-.046h.02v-.024h.03v-.047h.02v-.023h.02v-.047h.03v-.047h.02v-.024h.02v-.047h.03v-.023h.02v-.047h.02v-.024h.03v-.047h.02v-.023h.02v-.047h.03v-.023h.02v-.047h.02v-.047h.03v-.024h.02v-.047h.02v-.023h.03v-.047h.02v-.024h.03v-.047h.02v-.023h.02v-.047h.03v-.024h.02v-.047h.02v-.047h.03v-.023h.02v-.047h.02v-.023h.03v-.047h.02v-.024h.02v-.047h.03v-.023h.02v-.047h.02v-.024h.03v-.047h.02v-.047h.02v-.023h.03v-.047h.02v-.024h.02v-.046h.03v-.024h.02v-.047h.03v-.023h.02v-.047h.02v-.024h.03v-.047h.02v-.023h.02v-.047h.03v-.047h.02v-.024h.02v-.047h.03v-.023h.02v-.047h.02v-.023h.03v-.047h.02v-.024h.02v-.047h.03v-.023h.02v-.047h.02v-.024h.03v-.047h.02v-.047h.02v-.023h.03v-.047h.02v-.024h.02v-.047h.03v-.023h.02v-.047h.03v-.023h.02v-.047h.02v-.024h.03v-.047h.02v-.023h.02v-.047h.03v-.047h.02v-.024h.02v-.047h.03v-.023h.02v-.047h.02v-.024h.03v-.047h.02v-.023h.02v-.047h.03v-.023h.02v-.047h.02v-.024h.03v-.047h.02v-.047h.02v-.023h.03v-.047h.02v-.024h.03v-.047h.02v-.023h.02v-.047h.03v-.024h.02v-.046h.02v-.024h.03v-.023h.18v.023h.03v.047h.02v15.636h-.02v.023h-.03v.024h-.04v.023h-.05v.024" fill="url(#paint17_linear)"/>
  <path d="M504 740c0-11.046 8.954-20 20-20s20 8.954 20 20-8.954 20-20 20-20-8.954-20-20z" fill="#148EFF"/>
  <path d="M529.784 737.144c-2.53-1.171-6.17-1.914-9.593-1.638.171-1.134.595-1.922 1.29-2.089.956-.229 2 .4 2.994 1.545.652.083 1.425.233 1.963.357-1.813-3.411-4.247-5.324-6.097-4.618-1.407.537-2.128 2.474-2.042 5.078-1.834.39-3.263 1.083-4.178 2.079-.046.054-.151.189-.113.254.028.05.121-.006.161-.032 1.061-.742 2.42-1.144 4.189-1.397.253 2.778 1.428 6.302 3.378 9.126-1.068.419-1.963.447-2.454-.072-.677-.714-.654-1.932-.159-3.366a22.077 22.077 0 01-.672-1.878c-2.048 3.277-2.487 6.34-.951 7.589 1.169.951 3.206.606 5.418-.77 1.255 1.393 2.569 2.284 3.89 2.578.07.013.239.036.276-.029.029-.049-.066-.102-.109-.123-1.173-.548-2.2-1.524-3.304-2.93 2.28-1.607 4.743-4.386 6.215-7.489.896.715 1.368 1.477 1.164 2.162-.28.943-1.346 1.532-2.835 1.821a22.5 22.5 0 01-1.29 1.52c3.861.135 6.733-1.016 7.047-2.971.239-1.488-1.079-3.079-3.377-4.307.579-1.783.693-3.367.288-4.657-.024-.068-.088-.226-.165-.226-.057 0-.056.109-.053.157.116 1.29-.215 2.667-.881 4.326zm-7.11 8.223c-1.632-2.619-2.575-5.708-2.569-8.828 3.086-.103 6.23.624 8.93 2.19-1.451 2.723-3.655 5.083-6.361 6.638z" fill="#fff"/>
  <defs>
    <linearGradient id="paint0_linear" x1="435" y1="555" x2="507" y2="483" gradientUnits="userSpaceOnUse">
      <stop stop-color="#010B13"/>
      <stop offset="1" stop-color="#0B323C"/>
    </linearGradient>
    <linearGradient id="paint1_linear" x1="449.968" y1="537" x2="483.096" y2="497.247" gradientUnits="userSpaceOnUse">
      <stop stop-color="#AF893D"/>
      <stop offset=".234" stop-color="#D29D40"/>
      <stop offset=".531" stop-color="#FFCC74"/>
      <stop offset=".823" stop-color="#E8B55D"/>
    </linearGradient>
    <linearGradient id="paint2_linear" x1="449.968" y1="537" x2="483.096" y2="497.247" gradientUnits="userSpaceOnUse">
      <stop stop-color="#AF893D"/>
      <stop offset=".234" stop-color="#D29D40"/>
      <stop offset=".531" stop-color="#FFCC74"/>
      <stop offset=".823" stop-color="#E8B55D"/>
    </linearGradient>
    <linearGradient id="paint3_linear" x1="449.968" y1="537" x2="483.096" y2="497.246" gradientUnits="userSpaceOnUse">
      <stop stop-color="#AF893D"/>
      <stop offset=".234" stop-color="#D29D40"/>
      <stop offset=".531" stop-color="#FFCC74"/>
      <stop offset=".823" stop-color="#E8B55D"/>
    </linearGradient>
    <linearGradient id="paint5_linear" x1="252" y1="702" x2="364" y2="590" gradientUnits="userSpaceOnUse">
      <stop stop-color="#FEB811"/>
      <stop offset="1" stop-color="#9E27AD"/>
    </linearGradient>
    <linearGradient id="paint6_linear" x1="1270" y1="271.018" x2="1270" y2="213.208" gradientUnits="userSpaceOnUse">
      <stop stop-color="#E8E8E8"/>
      <stop offset=".544" stop-color="#F7F7F7"/>
      <stop offset="1" stop-color="#FCFCFC"/>
    </linearGradient>
    <linearGradient id="paint7_linear" x1="1271.65" y1="267.094" x2="1274.34" y2="262.159" gradientUnits="userSpaceOnUse">
      <stop stop-color="#01164B"/>
      <stop offset="1" stop-color="#001B50"/>
    </linearGradient>
    <linearGradient id="paint8_linear" x1="1282.07" y1="252.636" x2="1282.7" y2="251.485" gradientUnits="userSpaceOnUse">
      <stop stop-color="#01164B"/>
      <stop offset="1" stop-color="#001B50"/>
    </linearGradient>
    <linearGradient id="paint9_linear" x1="1276.79" y1="262.813" x2="1281.2" y2="254.736" gradientUnits="userSpaceOnUse">
      <stop stop-color="#01164B"/>
      <stop offset="1" stop-color="#001B50"/>
    </linearGradient>
    <linearGradient id="paint10_linear" x1="1282.21" y1="249.577" x2="1286.81" y2="241.157" gradientUnits="userSpaceOnUse">
      <stop stop-color="#01164B"/>
      <stop offset="1" stop-color="#001B50"/>
    </linearGradient>
    <linearGradient id="paint14_linear" x1="1271.53" y1="268.111" x2="1287.22" y2="241.088" gradientUnits="userSpaceOnUse">
      <stop stop-color="#001A4C"/>
      <stop offset="1" stop-color="#011C51"/>
    </linearGradient>
    <linearGradient id="paint15_linear" x1="1288" y1="705" x2="1216" y2="633" gradientUnits="userSpaceOnUse">
      <stop stop-color="#69E1FC"/>
      <stop offset="1" stop-color="#168EDA"/>
    </linearGradient>
    <linearGradient id="paint16_linear" x1="1068" y1="556" x2="1068" y2="596" gradientUnits="userSpaceOnUse">
      <stop stop-color="#0E1D30"/>
      <stop offset="1" stop-color="#0086BB"/>
    </linearGradient>
    <linearGradient id="paint17_linear" x1="1101.89" y1="323.223" x2="1101.89" y2="339.025" gradientUnits="userSpaceOnUse">
      <stop stop-color="#FF5F00"/>
      <stop offset=".265" stop-color="#FF6506"/>
      <stop offset=".48" stop-color="#FF6E0F"/>
      <stop offset=".482" stop-color="#FE690C"/>
      <stop offset=".486" stop-color="#FD5E05"/>
      <stop offset=".493" stop-color="#FC5701"/>
      <stop offset=".511" stop-color="#FC5500"/>
      <stop offset=".775" stop-color="#FE6300"/>
      <stop offset="1" stop-color="#FF6900"/>
    </linearGradient>
    <radialGradient id="paint4_radial" cx="0" cy="0" r="1" gradientUnits="userSpaceOnUse" gradientTransform="rotate(-47.911 827.27 -258.772) scale(25.064)">
      <stop offset=".119" stop-color="#117D8D"/>
      <stop offset=".642" stop-color="#2FEBEB"/>
      <stop offset=".866" stop-color="#117D8D"/>
    </radialGradient>
    <radialGradient id="paint11_radial" cx="0" cy="0" r="1" gradientUnits="userSpaceOnUse" gradientTransform="translate(1258.8 244.287) scale(26.3031)">
      <stop stop-color="#019EEF"/>
      <stop offset=".154" stop-color="#0194E5"/>
      <stop offset=".417" stop-color="#0278CB"/>
      <stop offset=".755" stop-color="#034CA1"/>
      <stop offset="1" stop-color="#04287E"/>
    </radialGradient>
    <radialGradient id="paint12_radial" cx="0" cy="0" r="1" gradientUnits="userSpaceOnUse" gradientTransform="translate(1263.04 239.567) scale(25.7448)">
      <stop stop-color="#65C5F7"/>
      <stop offset="1" stop-color="#08388D"/>
    </radialGradient>
    <radialGradient id="paint13_radial" cx="0" cy="0" r="1" gradientUnits="userSpaceOnUse" gradientTransform="translate(1256.73 237.95) scale(5.87571)">
      <stop stop-color="#fff"/>
      <stop offset="1"/>
    </radialGradient>
  </defs>
</svg>