<svg width="32" height="32" viewBox="0 0 32 32" fill="none" xmlns="http://www.w3.org/2000/svg">
  <path d="M9.4372 20.8708h7.1594a2.2741 2.2741 0 012.2742 2.2742v7.1595H9.4372v-9.4337z" fill="url(#paint0_linear)"/>
  <path d="M9.4372 11.4336H0v9.4372h9.4372v-9.4372z" fill="url(#paint1_linear)"/>
  <path d="M22.5664 14.2588a2.825 2.825 0 012.8076-2.8076H32v9.4196h-6.6085a2.8246 2.8246 0 01-1.9863-.8337 2.8248 2.8248 0 01-.8213-1.9915l-.0175-3.7868z" fill="url(#paint2_linear)"/>
  <path d="M9.4372 2h9.4336v7.1595a2.2743 2.2743 0 01-2.2742 2.2741H9.4372V2z" fill="url(#paint3_linear)"/>
  <defs>
    <linearGradient id="paint0_linear" x1="0" y1="2" x2="34.9058" y2="26.133" gradientUnits="userSpaceOnUse">
      <stop stop-color="#6123E7"/>
      <stop offset="1" stop-color="#9D70FF"/>
    </linearGradient>
    <linearGradient id="paint1_linear" x1="0" y1="2" x2="34.9058" y2="26.133" gradientUnits="userSpaceOnUse">
      <stop stop-color="#6123E7"/>
      <stop offset="1" stop-color="#9D70FF"/>
    </linearGradient>
    <linearGradient id="paint2_linear" x1="0" y1="2" x2="34.9058" y2="26.133" gradientUnits="userSpaceOnUse">
      <stop stop-color="#6123E7"/>
      <stop offset="1" stop-color="#9D70FF"/>
    </linearGradient>
    <linearGradient id="paint3_linear" x1="0" y1="2" x2="34.9058" y2="26.133" gradientUnits="userSpaceOnUse">
      <stop stop-color="#6123E7"/>
      <stop offset="1" stop-color="#9D70FF"/>
    </linearGradient>
  </defs>
</svg>