<svg viewBox="0 0 72 72" fill="none" xmlns="http://www.w3.org/2000/svg">
  <g clip-path="url(#clip0)">
    <path d="M72 0H0v72h72V0z" fill="#000"/>
    <g filter="url(#filter0_d)">
      <path d="M28.6168 41.2297h8.0544a2.5585 2.5585 0 012.5585 2.5584v8.0544H28.6168V41.2297z" fill="url(#paint0_linear)"/>
      <path d="M28.6168 30.6129H18v10.6168h10.6168V30.6129z" fill="url(#paint1_linear)"/>
      <path d="M43.3871 33.7912a3.1784 3.1784 0 013.1586-3.1586H54v10.5971h-7.4345a3.1783 3.1783 0 01-3.1586-3.1784l-.0198-4.2601z" fill="url(#paint2_linear)"/>
      <path d="M28.6168 20h10.6129v8.0544a2.5586 2.5586 0 01-2.5585 2.5585h-8.0544V20z" fill="url(#paint3_linear)"/>
    </g>
  </g>
  <defs>
    <linearGradient id="paint0_linear" x1="18" y1="20" x2="57.269" y2="47.1496" gradientUnits="userSpaceOnUse">
      <stop stop-color="#6123E7"/>
      <stop offset="1" stop-color="#9D70FF"/>
    </linearGradient>
    <linearGradient id="paint1_linear" x1="18" y1="20" x2="57.269" y2="47.1496" gradientUnits="userSpaceOnUse">
      <stop stop-color="#6123E7"/>
      <stop offset="1" stop-color="#9D70FF"/>
    </linearGradient>
    <linearGradient id="paint2_linear" x1="18" y1="20" x2="57.269" y2="47.1496" gradientUnits="userSpaceOnUse">
      <stop stop-color="#6123E7"/>
      <stop offset="1" stop-color="#9D70FF"/>
    </linearGradient>
    <linearGradient id="paint3_linear" x1="18" y1="20" x2="57.269" y2="47.1496" gradientUnits="userSpaceOnUse">
      <stop stop-color="#6123E7"/>
      <stop offset="1" stop-color="#9D70FF"/>
    </linearGradient>
    <clipPath id="clip0">
      <path fill="#fff" d="M0 0h72v72H0z"/>
    </clipPath>
    <filter id="filter0_d" x="-22" y="-4" width="116" height="111.843" filterUnits="userSpaceOnUse" color-interpolation-filters="sRGB">
      <feFlood flood-opacity="0" result="BackgroundImageFix"/>
      <feColorMatrix in="SourceAlpha" values="0 0 0 0 0 0 0 0 0 0 0 0 0 0 0 0 0 0 127 0" result="hardAlpha"/>
      <feOffset dy="16"/>
      <feGaussianBlur stdDeviation="20"/>
      <feComposite in2="hardAlpha" operator="out"/>
      <feColorMatrix values="0 0 0 0 0.616129 0 0 0 0 0.44 0 0 0 0 1 0 0 0 0.32 0"/>
      <feBlend in2="BackgroundImageFix" result="effect1_dropShadow"/>
      <feBlend in="SourceGraphic" in2="effect1_dropShadow" result="shape"/>
    </filter>
  </defs>
</svg>
