<svg viewBox="0 0 72 72" fill="none" xmlns="http://www.w3.org/2000/svg">
  <path d="M72 0H0v72h72V0Z" fill="#99B6D0"/>
  <path d="M45.7083 22h-.0625c-.3515.0391-7.4598.703-8.5377 1.0467-.4765.1484-1.2342.5624-.9061 1.6873.1093.3749.578 1.1873.9998 1.9137.0625.1094.1172.2031.1484.2578.8358 1.4685.5702 2.5152.2422 3.2651-.6562 1.5076-2.0856 2.0466-3.2105 2.0466-.6639 0-1.3201-.1797-1.8356-.4999-1.6092-1.0077-2.1794-2.4059-1.7498-4.2728.2188-1.0077.3047-1.7341.2578-2.2262-.0391-.375-.2187-.664-.5155-.8437-.2266-.1328-.5156-.2031-.8749-.2031-.7108 0-1.4685.2734-1.5545.3047l-5.546 1.8434c-.1953.0625-.3437.1875-.4296.3516-.0547.1171-.1094.3046-.0234.5546l1.4763 4.429c.3359.9998.2422 1.4294.1094 1.6169-.1094.1562-.3359.2343-.6562.2343-.0781 0-.1562-.0078-.2499-.0156l-.914-.0937-1.7731-.1797c-.1094-.0078-.2187-.0156-.3281-.0156-.9764 0-1.945.4531-2.6637 1.242-.7967.8905-1.2029 2.1247-1.0936 3.3823.1641 1.7732 1.1014 2.7808 1.8513 3.312.8905.6327 1.8982.867 2.484.8749h.0703c.8436 0 1.7263-.25 2.7808-.789 1.078-.5546 1.5154-.6405 1.6795-.6405h.0312c.6015.0625.5859 1.3357.5859 1.3435v.0157l.0937 7.5535v.0312c.0625.4921.4062.664.6874.664h.0625c.3515-.0313 7.4598-.703 8.5299-1.0389.4765-.1484 1.2342-.5624.9061-1.6873-.1093-.3749-.578-1.1873-.9998-1.9137-.0625-.1094-.1172-.2031-.1484-.2578-.8358-1.4685-.5702-2.5152-.2422-3.2651.6562-1.5076 2.0856-2.0466 3.2105-2.0466.6639 0 1.3201.1797 1.8356.4999 1.6092 1.0077 2.1794 2.4059 1.7498 4.2728-.2188 1.0077-.3047 1.7341-.2578 2.2262.039.375.2187.664.5155.8437.2266.1328.5156.2031.8749.2031.7108 0 1.4685-.2734 1.5545-.3047l5.546-1.8435c.1953-.0624.3437-.1874.4296-.3515.0547-.1171.1094-.3046.0234-.5546l-1.4763-4.429c-.3359-.9998-.2422-1.4294-.1094-1.6169.1094-.1562.3359-.2344.6562-.2344.0781 0 .1562.0079.2499.0157l.914.0937 1.7731.1797c.1094.0078.2188.0156.3281.0156.9764 0 1.945-.4531 2.6637-1.242.8201-.8983 1.2263-2.1403 1.1092-3.3979-.1641-1.7732-1.1014-2.7808-1.8513-3.312-.8905-.6327-1.8982-.8671-2.484-.8749h-.0703c-.8436 0-1.7263.25-2.7808.789-1.078.5546-1.5154.6405-1.6795.6405h-.0312c-.6015-.0625-.5859-1.3357-.5859-1.3436v-.0156l-.1015-7.5379v-.0312c-.0625-.5-.4062-.6718-.6874-.6718Z" fill="#042B4C" stroke="#0C3C6A" stroke-width=".5506"/>
  <path d="M41.5137 44.8403c-.0313.164-.0703.3202-.1016.4843.6796.0078 1.7185-.2422 1.7185-.2422l-1.4998-1.9059c.0625.5467.0078 1.1092-.1171 1.6638Z" fill="#fff"/>
  <path d="M35.4756 47.5742c-.1328-.4452-.9295-1.7575-1.1248-2.1012-.8983-1.5857-.6015-2.7652-.2578-3.562.125-.289.2734-.5389.4453-.7733-.6328-2.0465-.3594-4.2649-.3594-4.2649.1094 1.6013.8358 2.7964 1.2889 3.4057 1.2732-.8124 2.9683-.789 4.14-.0547 1.2498.7889 1.8356 1.7575 1.9919 2.7886l2.9917 1.2811 1.7653-2.6168-4.8742-7.3582c-.3593-.9218-.2187-2.0622-.2187-2.0622-.1875-.0625-1.9138-.9921-3.437-1.8201-1.0545 2.2028-3.7885 2.6012-5.4601 1.5545-1.2264-.7655-1.8044-1.7107-1.9841-2.7183-.5624.3202-1.1639.7342-1.7888 1.2341-.9451-1.1873-2.1559-2.8823-3.2182-4.7883l-2.6949.8983c-.2109.0703-.3281.2422-.2422.4921 0 0 .0703.2187.1875.5624 1.5076 1.7732 3.1636 3.2964 4.4056 4.3197-.4609.4921-.9139 1.0389-1.3357 1.6404a43.8339 43.8339 0 0 1-1.5311-.8437c0 .664-.3358 1.1327-1.3904 1.0311-.7499-.0781-2.4215-.2499-2.6871-.2734-.2343-.0234-.4608-.0156-.6874.0157 1.906.8592 3.7885 1.4919 5.1946 1.8825-.3203.6171-.6093 1.2732-.8515 1.9684-1.8669-.1171-4.6086-.4452-7.2332-1.2029a4.168 4.168 0 0 0-.1563 1.6013c.0782.8905.3672 1.5857.7577 2.1325 2.2809.0547 4.4837-.1562 6.046-.3906-.0938.4687-.1641.953-.2187 1.4529.039-.0234.0781-.039.1249-.0625.7499-.3827 1.4998-.703 1.8904-.6717.9373.0937.8827 1.6872.8827 1.6872l.0937 7.5535c.0547.4219.3906.375.3906.375s7.4207-.6952 8.4674-1.0311c.9374-.289.7733-.9842.6874-1.2811Zm8.6159-5.8975 1.0154.2734-1.3123.2421-.5936-1.0857.8905.5702Zm-4.7571-7.866.7186.6874s-.8514.3515-1.2185.1172c-.3672-.2422-.9608-1.5545-.9608-1.5545l1.4607.7499Z" fill="#fff"/>
  <path d="M30.3591 28.9989c-.0547-.539 0-1.0858.125-1.6326.1718-.7967.2968-1.5935.2499-2.1246-.1093-1.0311-1.4919-.7655-2.1559-.5781.5624 1.6638 1.2186 3.1792 1.781 4.3353Z" fill="#fff"/>
</svg>
