<svg viewBox="0 0 72 72" fill="none" xmlns="http://www.w3.org/2000/svg">
  <path d="M72 0H0v72h72V0z" fill="url(#paint0_linear)"/>
  <path d="M36 17.9c-9.5 0-17.3 7.4-18 16.8l9.7 4c.8-.6 1.8-.9 2.9-.9h.3l4.3-6.3v-.1c0-3.8 3.1-6.9 6.8-6.9 3.8 0 6.8 3.1 6.8 6.9 0 3.8-3.1 6.9-6.8 6.9h-.2l-6.1 4.4v.2c0 2.8-2.3 5.2-5.1 5.2-2.5 0-4.5-1.8-5-4.1l-6.9-2.9c2.1 7.7 9.1 13.3 17.4 13.3 10 0 18.1-8.2 18.1-18.2C54.1 26.1 46 17.9 36 17.9zm-6.7 27.7l-2.2-.9c.4.8 1.1 1.5 2 1.9 2 .8 4.2-.1 5-2.1.4-.9.4-2 0-3S33 39.8 32 39.4c-.9-.4-1.9-.4-2.8 0l2.3 1c1.4.6 2.1 2.3 1.5 3.7-.6 1.4-2.2 2.1-3.7 1.5zm17.2-14.2c0-2.5-2-4.6-4.5-4.6s-4.5 2.1-4.5 4.6c0 2.5 2 4.6 4.5 4.6s4.5-2 4.5-4.6zm-7.9 0c0-1.9 1.5-3.4 3.4-3.4s3.4 1.5 3.4 3.4-1.5 3.4-3.4 3.4c-1.9.1-3.4-1.5-3.4-3.4z" fill="#fff"/>
  <defs>
    <linearGradient id="paint0_linear" x1="36" y1="0" x2="36" y2="72" gradientUnits="userSpaceOnUse">
      <stop stop-color="#0E1D30"/>
      <stop offset="1" stop-color="#0086BB"/>
    </linearGradient>
  </defs>
</svg>
