<svg viewBox="0 0 72 72" fill="none" xmlns="http://www.w3.org/2000/svg">
  <path d="M72 0H0v72h72V0z" fill="#0C0E13"/>
  <path d="M50.8642 33.6993v.1158c0 .0386 0 0 0 0a1.2522 1.2522 0 01-.1859.5511l-.1368.1763-1.0939 1.4493L35.8058 53.719l-.0765.0992a.6213.6213 0 01-.4377.1818h-.9352a2.474 2.474 0 01-1.756-.7327 2.5112 2.5112 0 01-.7274-1.769v-.2315-.0551l1.0611-9.8637a.8944.8944 0 000-.1268.6204.6204 0 00-.1793-.4419.6088.6088 0 00-.4387-.1808h-8.4618a.6212.6212 0 01-.4376-.1818l-1.0501-1.2289-.0931-.0991a1.2734 1.2734 0 01-.2735-.788v-.1158c0-.0386 0 0 0 0a1.2523 1.2523 0 01.186-.5511l.1368-.1763 1.0939-1.4492L37.0913 18.281l.0765-.0992A.621.621 0 0137.6054 18h.8862c.6586 0 1.2902.2636 1.7559.7327a2.5115 2.5115 0 01.7273 1.7691v.2865l-1.0611 9.8638a.8944.8944 0 000 .1268.62.62 0 00.1794.4418.6104.6104 0 00.4387.1809h8.3414c.3273.0335.6281.1958.8369.4518l.8206.9588.0929.0992c.1652.2283.2498.5056.2406.7879z" fill="url(#paint0_linear)"/>
  <defs>
    <linearGradient id="paint0_linear" x1="46.1622" y1="40.9459" x2="29.4595" y2="26.9189" gradientUnits="userSpaceOnUse">
      <stop stop-color="#CE0F50"/>
      <stop offset="1" stop-color="#FE112D"/>
    </linearGradient>
  </defs>
</svg>
