<svg viewBox="0 0 72 72" fill="none" xmlns="http://www.w3.org/2000/svg">
  <path d="M0 0h72v72H0V0z" fill="#5865F2"/>
  <path d="M48.508 24.542a29.7177 29.7177 0 00-7.335-2.275.111.111 0 00-.118.056 20.6994 20.6994 0 00-.914 1.876 27.4367 27.4367 0 00-8.239 0c-.245-.59-.609-1.313-.927-1.876a.116.116 0 00-.118-.056 29.6327 29.6327 0 00-7.336 2.275.1043.1043 0 00-.048.042c-4.672 6.98-5.952 13.788-5.324 20.512a.1234.1234 0 00.047.085 29.8844 29.8844 0 008.999 4.549.1169.1169 0 00.126-.042 21.3661 21.3661 0 001.841-2.994.1148.1148 0 00.0048-.0935.115.115 0 00-.0668-.0655 19.6793 19.6793 0 01-2.811-1.34.1152.1152 0 01-.0571-.0928.1152.1152 0 01.0451-.0992c.19-.141.378-.288.558-.437a.1115.1115 0 01.117-.016c5.898 2.693 12.283 2.693 18.111 0a.1105.1105 0 01.118.014c.18.15.37.298.56.44a.1154.1154 0 01.0291.1514.1158.1158 0 01-.0391.0396c-.898.525-1.83.968-2.812 1.339a.1146.1146 0 00-.0745.1136.1158.1158 0 00.0125.0464 23.982 23.982 0 001.84 2.993c.028.04.08.057.126.043 2.945-.911 5.931-2.286 9.014-4.55a.1169.1169 0 00.047-.082c.751-7.774-1.26-14.527-5.329-20.513a.0921.0921 0 00-.047-.043zm-18.465 16.46c-1.776 0-3.239-1.63-3.239-3.632 0-2.002 1.435-3.632 3.239-3.632 1.818 0 3.267 1.644 3.239 3.632 0 2.002-1.435 3.632-3.239 3.632zm11.975 0c-1.776 0-3.239-1.63-3.239-3.632 0-2.002 1.435-3.632 3.239-3.632 1.818 0 3.267 1.644 3.239 3.632 0 2.002-1.42 3.632-3.24 3.632h.001z" fill="#fff"/>
</svg>
