<svg viewBox="0 0 72 72" fill="none" xmlns="http://www.w3.org/2000/svg">
  <path d="M72 0H0v72h72V0z" fill="#111211"/>
  <path d="M38.0146 23.9182c.4702-.6535.9403-1.3023 1.4481-1.9182.0705.6394.1176 1.2788.1599 1.9182.2068 2.8821.4231 5.7642.6206 8.6463H31.912a7.2777 7.2777 0 01-.9403 2.9902c-.9404 1.5139-2.5013 2.5059-3.9212 3.5449a15365.8861 15365.8861 0 0016.3333-4.0339c3.545-.8322 7.0524-1.8101 10.6162-2.5624-4.3772 2.3226-8.8907 4.3819-13.3008 6.634.2492 3.4274.4702 6.8549.7194 10.2776v.3009l-.4091-.3009a2479.143 2479.143 0 00-8.5004-6.2578c-4.2738 2.0734-8.5287 4.1797-12.7977 6.2672l-.4702.2163.1458-.2163c2.4824-3.4745 5.0307-6.9019 7.5225-10.3435L18 32.4986c4.5652-.0611 9.1258.0564 13.6863.047l6.3283-8.6274z" fill="#0E9648"/>
</svg>
