<svg viewBox="0 0 72 72" fill="none" xmlns="http://www.w3.org/2000/svg">
  <path d="M0 0h72v72H0V0Z" fill="#F1ED62"/>
  <path d="M27.633 29.1c3.885 0 7.77-.003 11.656.004a2.496 2.496 0 0 1 1.655.63c.511.439.8 1 .915 1.656.009.046.005.095.005.142 0 1.27.011 2.539-.006 3.807-.006.41-.141.796-.362 1.157-.208.339-.468.611-.79.836a2.4155 2.4155 0 0 1-1.07.424 3.2155 3.2155 0 0 1-.299.026c-.164.007-.19.047-.096.188.22.328.375.69.566 1.034.409.732.775 1.488 1.176 2.224.279.512.56 1.022.827 1.54.052.1.062.14-.078.14-1.254-.004-2.509-.004-3.764 0-.104 0-.152-.038-.204-.13-.312-.554-.597-1.122-.898-1.68-.289-.536-.574-1.072-.861-1.608-.28-.523-.577-1.037-.837-1.571-.05-.104-.126-.139-.24-.138-.667.004-1.334-.003-2.001.006-.152.002-.184-.048-.183-.19.006-.988.005-1.977 0-2.966 0-.124.033-.159.158-.158 1.72.004 3.441.003 5.161.003.207 0 .208 0 .208-.207 0-.492-.005-.984.003-1.475.002-.142-.032-.19-.184-.189-1.953.006-3.907.005-5.86 0-.13 0-.168.034-.168.167.005 1.433.003 2.866.003 4.299 0 1.888-.002 3.776.004 5.663 0 .141-.037.175-.176.174-1.127-.005-2.255-.003-3.382-.003-.208 0-.209 0-.209-.202v-9.867c0-.227 0-.227-.234-.227-1.328 0-2.657.002-3.986-.004-.14 0-.175.035-.175.175.004 3.31.001 6.62.007 9.93 0 .162-.039.2-.199.2a323.4295 323.4295 0 0 0-3.398-.002c-.127 0-.176-.027-.172-.165.017-.575.02-1.152.013-1.727-.02-1.721-.002-3.443-.01-5.164-.004-1.02-.003-2.04.003-3.061.001-.15-.043-.186-.187-.185-1.34.005-2.679-.001-4.018.007-.17.001-.196-.05-.195-.203a226.0588 226.0588 0 0 0 0-3.125c-.002-.159.046-.188.194-.188 3.896.004 7.792.003 11.688.003ZM46.407 34.382c-.039.15.003.3-.003.447-.008.2-.014.404 0 .604.013.19.005.378.002.566-.004.188.009.377-.003.567-.01.172-.006.347-.003.52.004.201.01.402 0 .604-.008.183.003.367.003.551 0 .191-.012.383.001.573.013.19-.003.378.001.567.005.182 0 .364 0 .546l.008.595c.001.172.013.345 0 .517-.015.204-.004.406-.005.61 0 .186-.004.373-.006.56-.002.181-.025.367.004.543.025.15-.045.15-.143.15h-3.398c-.21 0-.21-.001-.21-.203V29.31c0-.211 0-.212.219-.212 1.27 0 2.54.008 3.81-.007.217-.003.355.062.464.228.207.316.41.635.62.95.197.298.401.59.6.888.212.318.418.64.63.96.164.245.335.486.5.731.216.324.428.65.644.974.205.306.413.61.62.916l.728 1.086.64.957c.09.134.18.267.263.404.023.038.04.09.083.082.067-.011.037-.077.038-.118.003-.233.001-.466.001-.698 0-2.385.002-4.77-.003-7.155 0-.162.042-.202.203-.201 1.116.007 2.233.006 3.35 0 .148 0 .185.043.185.187-.004 4.479-.004 8.958-.001 13.436 0 .145-.038.187-.185.186-1.26-.005-2.52-.004-3.78 0-.117 0-.179-.028-.237-.145-.116-.23-.284-.43-.43-.641-.224-.323-.422-.664-.64-.992-.28-.424-.572-.84-.855-1.264-.245-.365-.483-.736-.726-1.102-.164-.247-.332-.49-.497-.737-.14-.211-.264-.436-.421-.633-.244-.307-.442-.642-.663-.963-.215-.311-.419-.63-.629-.946-.166-.25-.335-.5-.502-.75-.058-.086-.119-.17-.171-.259-.025-.041-.043-.082-.106-.09Z" fill="#000"/>
</svg>
