<svg viewBox="0 0 72 72" fill="none" xmlns="http://www.w3.org/2000/svg">
  <path d="M72 0H0v72h72V0Z" fill="#8F58D0"/>
  <path d="m31 37-3-16h17c-1.8333 5.5-6.2 17-9 19s-4.5-1.1667-5-3ZM34 46v-4h4v4h-4ZM40 47H29v5h11v-5Z" fill="#fff"/>
  <path fill-rule="evenodd" clip-rule="evenodd" d="m23.7964 19.8282.8793.8282.259 1.2191c.1423.6705.2587 1.2397.2585 1.2648-.0002.0251-1.6188.0528-3.5968.0616L18 23.2177l2.7298 6.0958 2.7299 6.0957 2.2117.0161 2.2116.0162.2045.9382c.1124.5161.286 1.1738.3857 1.4616.0997.2879.2927.7145.4288.9481.1361.2335.4528.6395.7037.9021.2509.2627.6634.6208.9166.7959.2532.175.7163.4382 1.0289.5849.3128.1466.7694.3302 1.015.4079l.4464.1413v4.1012h-5.7263v6.3774l-1.2348.8597-1.2348.8597 5.5709.0157c3.0639.0087 8.0977.0087 11.1861 0l5.6154-.0157-1.2388-.8615-1.2388-.8615v-6.3738h-5.7263v-4.1l.5292-.1724c.2911-.0948.7968-.3066 1.1237-.4705.327-.1641.7469-.4118.9331-.5506.1863-.1387.5016-.4106.7007-.6042.1991-.1936.495-.5406.6576-.7712.1627-.2306.383-.6289.4897-.8851.1066-.2563.3113-.9681.4548-1.5819l.261-1.116 2.2014-.0308 2.2013-.0308 2.7312-6.0957L54 23.2177l-3.5975-.0158c-1.9787-.0088-3.5976-.0311-3.5976-.0496s.1404-.6119.3119-1.3186l.3119-1.285.3192-.2942c.1756-.1618.5497-.5102.8313-.7743L49.0913 19H22.917l.8794.8282Zm19.8068 1.2538c0 .0276-1.704 4.1893-3.7867 9.2482s-3.8107 9.2221-3.84 9.2514c-.0301.0301-.3232.0237-.6724-.0147-.3405-.0375-.822-.1244-1.07-.1931-.248-.0688-.604-.2066-.7911-.3063-.1871-.0998-.4965-.304-.6875-.454-.1911-.1499-.474-.45-.6287-.6669-.1548-.2168-.3752-.5855-.4897-.8193-.1146-.2338-.2801-.6467-.3678-.9177-.0878-.2709-.2012-.6588-.2522-.862-.0509-.2032-.2477-1.1037-.4374-2.0011-.1897-.8974-.4668-2.2551-.6158-3.0171a377.512 377.512 0 0 1-.5179-2.7092c-.1358-.7281-.4556-2.4993-.7107-3.936s-.4638-2.6212-.4638-2.6322c0-.011 3.4496-.0201 7.6658-.0201s7.6659.0225 7.6659.0501Zm-17.8938 4.4293c.0178.0593.3937 1.7802.8354 3.8242.4417 2.0441.8031 3.755.8031 3.8021 0 .0704-.219.0858-1.2224.0858h-1.2224L23.17 29.3536c-.9532-2.1284-1.7331-3.8878-1.7331-3.9099 0-.0221.9541-.0401 2.1201-.0401 1.9658 0 2.1224.0078 2.1524.1077Zm24.8515-.0667c0 .0225-.7803 1.782-1.734 3.9099l-1.734 3.8689h-1.2215c-.7915 0-1.2215-.0222-1.2215-.063 0-.0347.3465-1.6625.7699-3.6174.4234-1.955.8002-3.686.8373-3.8469l.0675-.2925h2.1182c1.165 0 2.1181.0185 2.1181.041Zm-13.265 16.811c-.022.0572-.3213.7915-.6651 1.6316l-.6251 1.5276h-1.6385v-3.2634h1.4843c1.3687 0 1.4812.0082 1.4444.1042Zm2.2356 5.4823c-.0465.0585-.7748.9244-1.6184 1.9242-.8437.9997-1.6321 1.9216-1.752 2.0485l-.218.2309h-6.5633v-4.3101h5.1181c4.8418 0 5.1135.0058 5.0336.1065Z" fill="#000"/>
</svg>
