<svg viewBox="0 0 72 72" fill="none" xmlns="http://www.w3.org/2000/svg">
  <path d="M0 0h72v72H0V0z" fill="#3E6EA0"/>
  <path fill-rule="evenodd" clip-rule="evenodd" d="M54.7233 24.9562c-1.6022 1.45-5.5728 4.2939-8.5362 6.1138-3.6061 2.2147-9.3921 4.9594-15.0399 7.1346-5.3076 2.0443-6.8062 2.7445-8.166 3.8155-2.2301 1.7566-2.4468 5.3309-.4498 7.416l.6316.6593h8.8495l-1.1456-1.0082c-1.266-1.1145-1.7993-2.1316-1.7993-3.4319 0-1.8635.8908-2.6842 6.1142-5.6344 7.983-4.5089 14.4393-9.2948 19.5345-14.4813 1.7082-1.7386 1.7127-2.127.007-.5834z" fill="#fff"/>
  <path d="M20.0761 47.1352c0 .927-.7514 1.6784-1.6784 1.6784-.9269 0-1.6784-.7514-1.6784-1.6784 0-.927.7515-1.6784 1.6784-1.6784.927 0 1.6784.7514 1.6784 1.6784zM18.8773 37.3045c0 .7946-.6441 1.4387-1.4387 1.4387-.7945 0-1.4386-.6441-1.4386-1.4387 0-.7945.6441-1.4386 1.4386-1.4386.7946 0 1.4387.6441 1.4387 1.4386zM22.7136 28.6727c0 .7946-.6441 1.4387-1.4386 1.4387-.7945 0-1.4386-.6441-1.4386-1.4387 0-.7945.6441-1.4386 1.4386-1.4386.7945 0 1.4386.6441 1.4386 1.4386zM29.1875 22.7983c0 .5959-.4831 1.079-1.079 1.079s-1.079-.4831-1.079-1.079.4831-1.079 1.079-1.079 1.079.4831 1.079 1.079zM36.3807 21.9591a.9591.9591 0 01-.9591.9591.9591.9591 0 01-.9591-.9591.9591.9591 0 01.9591-.9591.9591.9591 0 01.9591.9591zM42.1352 23.2778a.8392.8392 0 01-.8392.8392.8392.8392 0 11.8392-.8392zM45.9716 26.0352a.7193.7193 0 11-1.4387 0 .7193.7193 0 011.4387 0z" fill="#fff"/>
</svg>
