<svg viewBox="0 0 72 72" fill="none" xmlns="http://www.w3.org/2000/svg">
  <path d="M72 0H0v72h72V0Z" fill="url(#a)"/>
  <path fill-rule="evenodd" clip-rule="evenodd" d="M47.6702 35.5429c-2.7999-6.1203-4.9909-9.4735-4.7928-15.5545-.5519.5842-.5601.6719-.9335 1.1461-.9663 1.2284-1.3416 1.9195-1.5214 3.9256-.0603 2.4604.2739 2.8607-.5021 5.1124-.2876-1.7021-.4962-2.1239-.9024-3.0852-1.3868-3.282-3.8207-5.7273-6.3673-7.4262-.7335-.4894-2.0221-1.3763-3.4235-1.6611.8413 1.242 1.7611 3.4148 1.888 4.6057.1529 1.4283.3058 2.7639-.3524 4.53-.7828 2.0997-1.8774 3.9183-2.4161 5.3863-.251.6847-.3054.9499-.6039 2.0134-.3788-1.4447-1.7615-4.5395-3.145-4.8075.0195.0706.0383.1405.0566.2096.5368 2.0271.3359 4.1711-.5222 6.0856a13.0254 13.0254 0 0 0 .207 11.0645A13.0263 13.0263 0 0 0 32.9812 54a8.171 8.171 0 0 1-4.991-9.128 8.1711 8.1711 0 0 1 8.0174-6.6296 8.1707 8.1707 0 0 1 3.0523 15.7526c5.7182-1.3694 9.9688-6.517 9.9688-12.656.0004-2.0824-.5473-4.0228-1.3585-5.7961Z" fill="#30C97B"/>
  <defs>
    <linearGradient id="a" x1="36" y1="0" x2="36" y2="72" gradientUnits="userSpaceOnUse">
      <stop stop-color="#1A423A"/>
      <stop offset="1" stop-color="#010F0C"/>
    </linearGradient>
  </defs>
</svg>
