<svg viewBox="0 0 72 72" fill="none" xmlns="http://www.w3.org/2000/svg">
  <path d="M72 0H0v72h72V0z" fill="#FF4301"/>
  <path d="M53.9998 36.3c0-2.2-1.8-3.9-3.9-3.9-1.1 0-2 .4-2.7 1.1-2.7-1.9-6.4-3.2-10.5-3.3l1.8-8.4 5.9 1.2c.1 1.5 1.3 2.7 2.8 2.7 1.6 0 2.8-1.3 2.8-2.8 0-1.6-1.3-2.8-2.8-2.8-1.1 0-2.1.6-2.5 1.6l-6.5-1.4c-.2 0-.4 0-.5.1-.2.1-.3.3-.3.4l-2 9.4c-4.2.1-8 1.4-10.7 3.3-.7-.7-1.7-1.1-2.7-1.1-2.2 0-3.9 1.8-3.9 3.9 0 1.6 1 3 2.3 3.6-.1.4-.1.8-.1 1.2 0 6.1 7.1 11 15.8 11 8.7 0 15.8-4.9 15.8-11 0-.4 0-.8-.1-1.2 1-.6 2-2 2-3.6zm-27 2.8c0-1.6 1.3-2.8 2.8-2.8 1.6 0 2.8 1.3 2.8 2.8 0 1.6-1.3 2.8-2.8 2.8-1.6 0-2.8-1.3-2.8-2.8zm15.7 7.4c-1.9 1.9-5.6 2.1-6.7 2.1-1.1 0-4.8-.2-6.7-2.1-.3-.3-.3-.7 0-1 .3-.3.7-.3 1 0 1.2 1.2 3.8 1.6 5.7 1.6 1.8 0 4.4-.4 5.7-1.6.3-.3.7-.3 1 0 .3.3.3.7 0 1zm-.5-4.6c-1.6 0-2.8-1.3-2.8-2.8 0-1.6 1.3-2.8 2.8-2.8 1.5 0 2.8 1.3 2.8 2.8 0 1.5-1.3 2.8-2.8 2.8z" fill="#fff"/>
</svg>
