<svg viewBox="0 0 72 72" fill="none" xmlns="http://www.w3.org/2000/svg">
  <path d="M72 0H0v72h72V0z" fill="#F04D59"/>
  <path d="M51.0701 23.4427c-.1218-.2436-.4442-.4427-.7166-.4427H38.1446c-.2722 0-.3959.1991-.2735.4427l1.207 2.4143c.1224.2436.4443.4427.7164.4427h7.2593c.2723 0 .594.1991.7164.4426l1.207 2.4144c.1218.2436.0878.6209-.0755.8387l-11.78 15.7065c-.1633.2178-.5197.396-.7919.396h-.6599c-.2723 0-.6286-.1782-.792-.396L23.098 29.9954c-.1633-.2178-.198-.5951-.0756-.8387l1.2071-2.4144c.1224-.2435.4443-.4426.7163-.4426h7.2594c.2722 0 .5939-.1991.7163-.4427l1.2071-2.4143c.1224-.2436-.0012-.4427-.2736-.4427H21.6461c-.2722 0-.5939.1991-.7163.4427l-2.8567 5.714c-.1218.2436-.0878.6209.0754.8387l14.2547 19.0062c.1633.2178.5197.396.7919.396h5.6095c.2722 0 .6286-.1782.7919-.396l14.2547-19.0062c.1634-.2178.198-.5951.0756-.8387l-2.8567-5.714z" fill="#fff"/>
  <path d="M32.7003 29.5994h-6.187L36 42.7982l9.4867-13.1988h-6.187L36 23l-3.2997 6.5994z" fill="#fff"/>
</svg>
