<svg viewBox="0 0 72 72" fill="none" xmlns="http://www.w3.org/2000/svg">
  <path d="M0 0h72v72H0V0z" fill="#000"/>
  <path d="M32.4741 32.18v-1.334c-.487-.078-.964-.19-1.457-.198a10.9124 10.9124 0 00-10.4333 7.635 10.911 10.911 0 00.0816 6.8027 10.9111 10.9111 0 004.0957 5.4323 10.9001 10.9001 0 01-2.08-11.675c1.669-3.96 5.484-6.168 9.793-6.595v-.068z" fill="#25F4EE"/>
  <path d="M32.7501 48.116c2.668-.003 4.865-2.153 4.982-4.82v-23.79h4.346a8.149 8.149 0 01-.126-1.506h-5.945v23.767a4.9899 4.9899 0 01-4.979 4.807c-.801-.007-1.612-.181-2.323-.552a5.0496 5.0496 0 004.044 2.094h.001zM50.1959 27.578v-1.322c-1.6 0-3.1639-.472-4.4959-1.357a8.2453 8.2453 0 004.4959 2.68v-.001z" fill="#25F4EE"/>
  <path d="M45.7001 24.9a8.1873 8.1873 0 01-2.035-5.405h-1.587a8.2333 8.2333 0 003.622 5.404v.001zM31.0171 36.593a4.99 4.99 0 00-4.822 3.805c-.544 2.225.082 4.575 2.51 5.624a5.018 5.018 0 01-.39-5.209 4.9796 4.9796 0 014.438-2.714c.499.007.995.084 1.472.23l-.015-5.968c-.487-.073-.98-.111-1.472-.115h-.264l-.034 4.507a4.78 4.78 0 00-1.423-.16z" fill="#FE2C55"/>
  <path d="M50.196 27.578l.012 4.565c-2.962-.006-5.857-.908-8.256-2.644v12.084c-.013 6.03-4.905 10.913-10.935 10.913a10.8194 10.8194 0 01-6.256-1.978 10.9117 10.9117 0 0011.9827 2.7265A10.9121 10.9121 0 0043.665 43.09V31.04a14.1317 14.1317 0 008.256 2.644v-5.922a8.4256 8.4256 0 01-1.725-.184z" fill="#FE2C55"/>
  <path d="M41.9521 41.583V29.5a14.109 14.109 0 008.256 2.644v-4.6a8.2437 8.2437 0 01-4.508-2.644 8.2324 8.2324 0 01-3.622-5.404h-4.346v23.802a4.9906 4.9906 0 01-3.5438 4.5747 4.9901 4.9901 0 01-5.4832-1.8497 4.9902 4.9902 0 012.3-9.406c.5.005.995.082 1.472.23v-4.6a10.9 10.9 0 00-7.727 18.398 10.8202 10.8202 0 006.267 1.852c6.03 0 10.922-4.882 10.935-10.913v-.001z" fill="#fff"/>
</svg>
