<svg viewBox="0 0 72 72" fill="none" xmlns="http://www.w3.org/2000/svg">
  <path d="M72 0H0v72h72V0z" fill="#1DA1F2"/>
  <path d="M54 24.9c-1.3.6-2.7 1-4.2 1.2 1.5-.9 2.7-2.4 3.2-4.1-1.4.8-3 1.5-4.7 1.8-1.3-1.4-3.3-2.3-5.4-2.3-4.1 0-7.4 3.3-7.4 7.4 0 .6.1 1.1.2 1.7-6.1-.3-11.6-3.2-15.2-7.7-.6 1.1-1 2.4-1 3.7 0 2.6 1.3 4.8 3.3 6.1-1.2 0-2.3-.4-3.3-.9v.1c0 3.6 2.5 6.6 5.9 7.2-.6.2-1.3.3-1.9.3-.5 0-.9 0-1.4-.1.9 2.9 3.7 5.1 6.9 5.1-2.5 2-5.7 3.2-9.2 3.2-.6 0-1.2 0-1.8-.1 3.3 2.1 7.1 3.3 11.3 3.3 13.6 0 21-11.2 21-21v-1c1.4-1.2 2.7-2.5 3.7-3.9z" fill="#fff"/>
</svg>
