<svg viewBox="0 0 72 72" fill="none" xmlns="http://www.w3.org/2000/svg">
  <path d="M72 0H0v72h72V0z" fill="#0F1923"/>
  <path fill-rule="evenodd" clip-rule="evenodd" d="M18.7801 26.3907c-.4183.6722-.7693 1.2557-.7801 1.2966-.0115.0441 2.901 4.7648 7.1222 11.5442l7.1417 11.4697 1.4469.0119 1.4469.0119V40.591l-2.7381-4.642-2.738-4.6421-5.0078-3.0456c-2.7542-1.6751-5.0359-3.0563-5.0705-3.0692-.0433-.0163-.2976.3539-.8232 1.1986z" fill="#3C4D61"/>
  <path fill-rule="evenodd" clip-rule="evenodd" d="M47.3456 28.2507l-5.0212 3.0565-2.7402 4.6368-2.7402 4.6368-.0021 5.0817-.0021 5.0818h2.8705l7.1352-11.4593C50.7699 32.9824 53.9894 27.793 54 27.753c.0223-.0847-1.5124-2.5652-1.5848-2.5614-.0267.0014-2.308 1.378-5.0696 3.0591z" fill="#546B8A"/>
  <path fill-rule="evenodd" clip-rule="evenodd" d="M21.2564 22.359c-.4729.7875-.7993 1.3758-.7762 1.3989.0219.0219 2.2578 1.3879 4.9687 3.0355l4.9288 2.9956h11.4232l4.9052-2.9792c2.6978-1.6386 4.9328-3.0056 4.9666-3.0378.0516-.0491-.0701-.278-.7462-1.404l-.8077-1.3453-14.0232-.0114L22.0724 21l-.816 1.359z" fill="#FF4654"/>
</svg>
