<svg xmlns="http://www.w3.org/2000/svg" xmlns:xlink="http://www.w3.org/1999/xlink" viewBox="0 0 91.18 80.65">
  <defs>
    <linearGradient id="a" x1="658.83" y1="-189.1" x2="735.67" y2="-226.07" gradientTransform="rotate(45 34.3424 -891.5749)" gradientUnits="userSpaceOnUse">
      <stop offset="0" stop-color="#6124e7"/>
      <stop offset="1" stop-color="#9d70ff"/>
    </linearGradient>
    <linearGradient id="b" x1="651.3" y1="-204.76" x2="728.13" y2="-241.72" xlink:href="#a"/>
    <linearGradient id="c" x1="641.61" y1="-224.91" x2="718.44" y2="-261.88" xlink:href="#a"/>
    <linearGradient id="d" x1="636.45" y1="-235.63" x2="713.28" y2="-272.6" xlink:href="#a"/>
  </defs>
  <g data-name="Layer 1">
    <path d="M26.89 53.77h20.4a6.48 6.48 0 016.48 6.48v20.4H26.89V53.77z" fill="url(#a)"/>
    <path fill="url(#b)" d="M0 26.88h26.89v26.89H0z"/>
    <path d="M64.3 34.93a8.05 8.05 0 018-8h18.88v26.84H72.35a8.05 8.05 0 01-8-8.05z" fill="url(#c)"/>
    <path d="M26.89 0h26.88v20.4a6.48 6.48 0 01-6.48 6.48h-20.4V0z" fill="url(#d)"/>
  </g>
</svg>