<svg viewBox="0 0 72 72" fill="none" xmlns="http://www.w3.org/2000/svg">
  <path d="M36.2465 18h1.0075c.701.263 1.3749.6273 1.9857 1.0401.1961.7901.5388 1.6308.2424 2.4392-.2525.2231-.5951.3147-.8994.4516.0361.3115.089.6208.1398.9302.5747-.0464 1.1326-.1908 1.6972-.2954.0778-.3211.0969-.6704.3099-.9431.0462.2178.0834.4376.1127.6586.3021.1681.5951.4063.9704.3686 2.3667.0022 4.7345-.0064 7.1.0011.2604-.0194.3844.2447.5635.3805.0057-.4807.0034-.9615.026-1.4422.0698.0022.2096.0043.2795.0054.0146.4225-.0327.8558.0901 1.2676.1319.0291.2671.0377.4035.0538.0067.165.0124.3299.0225.4959.7269.0204 1.4617.0668 2.183-.0518.4846-.07.976-.0226 1.4651-.0215.0079.1649.0237.3287.0541.4925-.6041.0421-1.2149.0809-1.8156-.0151-.9624-.112-1.9238.083-2.8851.0313-.0327.125-.0631.2501-.0935.3751-.9242.0097-1.8483-.0054-2.7713-.0011-.3066-.0075-.6435.0561-.8374.3029-.2716.3244-.6007.6014-.8621.9334-.0845.609.1645 1.1996.3076 1.7838-.2175.0755-.4361.1466-.6502.2242-.2198.6586-.133 1.5015-.763 1.9628-.3482.25-.6559.5615-1.0537.7394-.2897.125-.6007-.0054-.8915-.0464-1.0853-.1573-1.9846-.7954-2.9538-1.2352-.0632.2512-.1342.4991-.2052.7481.2942.1821.674.3373.7709.6952.1488.5238.0248 1.0735.0034 1.607-.0462.4894-.0609.9819-.1093 1.4713-.0474.4753-.3348.8838-.63 1.2535-.2761-.0647-.5466-.1412-.8194-.2102-.2941.6036-.0495 1.3538.4351 1.8033 1.2599 1.3106 1.9429 2.9975 2.583 4.6412.1094.347.4824.5529.5455.9183.1059.388.2558.7771.2209 1.1845-.0485.7147-.1026 1.4293-.1781 2.1417-.0518.5228-.2547 1.0445-.1352 1.5726.089.4301.1442.8849-.0203 1.3063-.222.5293-.2198 1.1081-.2231 1.6696.0101.3697.0315.7761.2997 1.0692.3179.3741.6278.7621 1.0076 1.0811.4699.2943 1.1168.2964 1.5034.7222.1217.2328.0349.5044.0315.7534-1.2205.1768-2.4974.1897-3.683-.1746-.6694-.208-1.4076.1487-2.0477-.2027.0349-.7318.2197-1.4464.4902-2.1298.1116-.5098-.0101-1.0379-.0214-1.5542-.0079-.4463-.2479-.8407-.3403-1.2697-.2649-.9205-.3404-1.8787-.3855-2.8294-.0586-.4667.355-.8191.3719-1.2751.0868-.4042.0226-.8191-.2389-1.1533-.4542-.0129-1.0661.1014-1.3208-.3653-.532-.7524-1.0493-1.5155-1.5801-2.2678-.1848-.3245-.6288-.2479-.9331-.3902-.2716-.2393-.4069-.5777-.5759-.8828-.0992.3493-.2344.6996-.5049.9636-.426.4096-.5793.9787-.8002 1.4982-.1555.3751-.2953.7599-.3516 1.1609-.0597.3028-.0733.6575-.3573.8558-.417.3018-.5657.8105-.9466 1.1425-.284.2587-.4576.6111-.5511.9701-.0305.3244.0676.6531-.0181.9733-.1544.5863-.4925 1.1037-.7404 1.6544-.1758.387-.2671.8041-.4598 1.1846-.1285.2662-.4576.3524-.6379.5756-.5229.8601-.6897 1.897-.5026 2.8724.1499.387.2592.7922.1668 1.2083-.3212.042-.6402.0927-.9625.1207h-.9963c-.2592-.0517-.5263-.0905-.7629-.2069-.177-.5293-.1477-1.1091.0112-1.6394.2333-.7977.4452-1.6006.6559-2.4026.142-.3934-.1949-.7458-.1645-1.1392-.0338-.5799.3415-1.0585.6131-1.5424.2547-.4301.1645-.9485.3415-1.4023.4001-.9852 1.1563-1.7871 1.6071-2.7485.1386-.3913-.0113-.8073.0157-1.2104.0338-.7642.1916-1.5187.3291-2.2711.0462-.2899.1443-.596.0271-.8816-.1251-.3406-.213-.7028-.1634-1.066.0518-.3342-.1567-.6661-.026-.9927.0688-.277.3348-.4333.5478-.6058.0383-1.1382-.3945-2.257-.213-3.3919.2073-.2458.5409-.3342.8305-.4581a98.061 98.061 0 01-1.2723-.2587c-.0169-.4592.0484-.914.1487-1.3624.1556-.6995.0699-1.4228.186-2.1266.018-.1789.222-.2393.3832-.2457.3854-.027.7742-.0442 1.1529-.1315-.1127-.8893-.2063-1.7968.0034-2.6817.2028-1.0444.6919-2.1029 1.6082-2.7496.6311-.4074 1.5428-.6478 2.2021-.1617.0541-.0355.1623-.1056.2164-.1401-.3832-.9884-.2986-2.1309.3099-3.0212.3934-.6068 1.0831-.9517 1.7751-1.1619zm6.1883 6.8001c-.0338.2587-.1172.5152-.3787.6392.3449-.0216.6942-.0205 1.0346-.0916-.0079-.1897-.0147-.3784-.0225-.5681-.213.0044-.4238.0108-.6334.0205zm-.7145.7308c-.0293.0366-.0891.1078-.1184.1444.0541.3503.328.637.5106.941.2659-.3579.5353-.7157.7889-1.0822-.3934-.0172-.7889-.042-1.1811-.0032z" fill="orange"/>
</svg>
